<svg xmlns="http://www.w3.org/2000/svg" xmlns:xlink="http://www.w3.org/1999/xlink" width="500" zoomAndPan="magnify" viewBox="0 0 375 374.999991" height="500" preserveAspectRatio="xMidYMid meet" version="1.2"><defs><clipPath id="8be56eeb8b"><path d="M 62 99 L 318 99 L 318 309 L 62 309 Z M 62 99 "/></clipPath><clipPath id="e39e41069c"><path d="M 252.734375 2.378906 L 385.441406 204.148438 L 152.34375 357.464844 L 19.632812 155.695312 Z M 252.734375 2.378906 "/></clipPath><clipPath id="11b9a9bef3"><path d="M 252.734375 2.378906 L 385.441406 204.148438 L 152.34375 357.464844 L 19.632812 155.695312 Z M 252.734375 2.378906 "/></clipPath><clipPath id="2f2a8bccea"><path d="M 0 249 L 96 249 L 96 307 L 0 307 Z M 0 249 "/></clipPath><clipPath id="b5e45ea31d"><path d="M -47.421875 185.316406 L 97.496094 250.742188 L 53.058594 349.175781 L -91.859375 283.75 Z M -47.421875 185.316406 "/></clipPath><clipPath id="c220fea934"><path d="M -47.421875 185.316406 L 97.496094 250.742188 L 53.058594 349.175781 L -91.859375 283.75 Z M -47.421875 185.316406 "/></clipPath></defs><g id="81af48386b"><g clip-rule="nonzero" clip-path="url(#8be56eeb8b)"><g clip-rule="nonzero" clip-path="url(#e39e41069c)"><g clip-rule="nonzero" clip-path="url(#11b9a9bef3)"><path style=" stroke:none;fill-rule:evenodd;fill:#ffffff;fill-opacity:1;" d="M 316.710938 104.78125 C 312.78125 98.804688 291.152344 108.925781 281.226562 113.996094 C 278.277344 115.632812 275.570312 117.074219 272.953125 118.796875 L 245.046875 137.152344 C 243.414062 138.136719 242.792969 138.148438 241.390625 137.757812 L 208.449219 128.558594 C 206.464844 127.753906 205.242188 125.816406 208.835938 123.664062 L 211.328125 122.023438 C 212.703125 121.121094 213.101562 119.285156 212.195312 117.910156 L 210.160156 114.816406 C 209.257812 113.441406 207.402344 113.058594 206.027344 113.964844 L 191.398438 123.585938 C 190.953125 123.886719 190.863281 123.832031 190.371094 123.699219 L 158.765625 115.21875 C 155.933594 114.082031 156.859375 112.375 159.351562 110.582031 L 163.90625 107.582031 C 165.28125 106.679688 165.679688 104.84375 164.773438 103.46875 L 162.738281 100.375 C 161.835938 99 159.980469 98.617188 158.605469 99.523438 L 143.453125 109.488281 C 143.261719 109.613281 143.191406 109.546875 143.035156 109.523438 L 109.714844 100.046875 C 107.011719 99.824219 105.652344 99.535156 102.664062 101.582031 L 94.113281 107.09375 C 92.839844 107.679688 93.089844 109.0625 93.953125 109.578125 C 93.953125 109.578125 141.667969 131.804688 157.445312 141.988281 C 173.21875 152.175781 190.144531 168.445312 190.144531 168.445312 C 191.472656 169.6875 192.382812 170.976562 191.179688 172.578125 L 129.804688 212.945312 L 127.25 214.628906 C 119.644531 219.683594 116.921875 225.605469 112.261719 224.488281 L 73.386719 215.878906 C 70.886719 215.449219 69.019531 215.480469 66.410156 216.953125 L 63.792969 218.726562 C 62.609375 219.617188 62.28125 220.5 63.171875 221.535156 L 90.742188 247.113281 C 91.523438 247.75 91.855469 248.441406 91.445312 249.511719 L 86.632812 257.144531 L 96.191406 256.339844 C 97.296875 256.375 98.308594 257.132812 98.53125 258.058594 C 102.492188 268.9375 106.453125 279.8125 110.417969 290.691406 C 111.066406 292 111.738281 292.964844 113.464844 292.050781 L 117.496094 289.398438 C 119.863281 286.933594 120.105469 284.484375 120.675781 281.707031 L 125.320312 244.339844 C 126.117188 240.605469 132.375 239.671875 140.570312 235.375 L 143.105469 233.707031 L 203.761719 193.8125 L 203.792969 193.820312 L 203.808594 193.839844 L 203.828125 193.824219 L 203.839844 193.847656 L 203.863281 193.832031 L 203.875 193.851562 L 203.894531 193.839844 L 203.910156 193.859375 C 204.011719 193.820312 204.117188 193.78125 204.21875 193.746094 C 204.316406 193.710938 204.421875 193.691406 204.519531 193.664062 C 204.617188 193.636719 204.707031 193.621094 204.800781 193.597656 C 204.898438 193.578125 204.988281 193.546875 205.082031 193.53125 C 205.175781 193.519531 205.265625 193.503906 205.355469 193.5 C 205.449219 193.496094 205.535156 193.496094 205.621094 193.5 C 205.710938 193.503906 205.796875 193.523438 205.882812 193.535156 C 205.96875 193.550781 206.074219 193.570312 206.15625 193.59375 C 206.238281 193.617188 206.308594 193.640625 206.386719 193.675781 C 206.46875 193.710938 206.570312 193.753906 206.648438 193.800781 C 206.726562 193.847656 206.792969 193.894531 206.867188 193.953125 C 206.941406 194.011719 207.019531 194.089844 207.089844 194.160156 C 207.160156 194.230469 207.226562 194.296875 207.292969 194.382812 C 207.363281 194.464844 207.421875 194.570312 207.484375 194.667969 C 207.546875 194.769531 207.605469 194.878906 207.667969 194.992188 C 207.726562 195.105469 207.789062 195.21875 207.84375 195.347656 C 207.84375 195.347656 215.5 215.195312 218.945312 233.917969 C 222.390625 252.636719 224.703125 307.085938 224.703125 307.085938 C 225.105469 308.101562 225.738281 308.765625 226.691406 308.304688 L 234.59375 303.105469 C 236.746094 301.765625 237.804688 299.273438 238.039062 297.796875 L 242.910156 263.871094 C 243.324219 262.542969 243.386719 262.265625 243.90625 261.894531 L 258.914062 252.023438 C 260.289062 251.117188 260.671875 249.261719 259.765625 247.886719 L 257.730469 244.796875 C 256.828125 243.421875 254.984375 243.058594 253.609375 243.960938 L 249.054688 246.957031 C 246.5 248.980469 245.023438 248.921875 245.199219 246.394531 L 249.425781 213.484375 C 249.519531 212.746094 249.464844 212.625 249.859375 212.375 L 264.445312 202.78125 C 265.820312 201.875 266.207031 200.019531 265.300781 198.644531 L 263.265625 195.550781 C 262.363281 194.175781 260.519531 193.8125 259.144531 194.71875 L 256.652344 196.359375 C 253.40625 198.992188 251.210938 197.171875 251.878906 194.535156 L 256.597656 160.773438 C 256.839844 159.183594 257.332031 158.726562 258.519531 157.796875 L 286.5 139.394531 C 289.222656 137.507812 292.226562 135.316406 294.554688 133.351562 C 303.535156 125.660156 322.183594 107.949219 316.714844 104.78125 Z M 316.710938 104.78125 "/></g></g></g><g clip-rule="nonzero" clip-path="url(#2f2a8bccea)"><g clip-rule="nonzero" clip-path="url(#b5e45ea31d)"><g clip-rule="nonzero" clip-path="url(#c220fea934)"><path style=" stroke:none;fill-rule:nonzero;fill:#ffffff;fill-opacity:1;" d="M 94.960938 249.996094 C 93.832031 249.128906 92.207031 249.34375 91.339844 250.472656 C 71.238281 276.71875 40.980469 294.714844 8.324219 299.851562 C -24.332031 304.988281 -58.652344 297.152344 -85.84375 278.347656 C -87.015625 277.535156 -88.625 277.828125 -89.4375 279.003906 C -90.246094 280.175781 -89.953125 281.785156 -88.78125 282.59375 C -82.167969 287.167969 -75.152344 291.117188 -67.84375 294.414062 C -43.914062 305.21875 -16.882812 309.046875 9.128906 304.953125 C 43.082031 299.613281 74.539062 280.902344 95.441406 253.617188 C 96.308594 252.484375 96.09375 250.863281 94.960938 249.996094 Z M 94.960938 249.996094 "/></g></g></g></g></svg>