<svg xmlns="http://www.w3.org/2000/svg" xmlns:xlink="http://www.w3.org/1999/xlink" width="500" zoomAndPan="magnify" viewBox="0 0 375 374.999991" height="500" preserveAspectRatio="xMidYMid meet" version="1.2"><defs><clipPath id="09e54678f6"><path d="M 223.636719 151.363281 L 375 151.363281 L 375 223.636719 L 223.636719 223.636719 Z M 223.636719 151.363281 "/></clipPath><clipPath id="1bc283b89c"><path d="M 0 151.363281 L 151.363281 151.363281 L 151.363281 223.636719 L 0 223.636719 Z M 0 151.363281 "/></clipPath><clipPath id="ee4b954f5d"><path d="M 91.140625 91.140625 L 283.859375 91.140625 L 283.859375 283.859375 L 91.140625 283.859375 Z M 91.140625 91.140625 "/></clipPath><clipPath id="6bf9c4cd12"><path d="M 187.5 91.140625 C 134.28125 91.140625 91.140625 134.28125 91.140625 187.5 C 91.140625 240.71875 134.28125 283.859375 187.5 283.859375 C 240.71875 283.859375 283.859375 240.71875 283.859375 187.5 C 283.859375 134.28125 240.71875 91.140625 187.5 91.140625 Z M 187.5 91.140625 "/></clipPath><clipPath id="de3b25404f"><path d="M 91.140625 91.140625 L 283.855469 91.140625 L 283.855469 283.855469 L 91.140625 283.855469 Z M 91.140625 91.140625 "/></clipPath><clipPath id="57cd835b56"><path d="M 187.496094 91.140625 C 134.28125 91.140625 91.140625 134.28125 91.140625 187.496094 C 91.140625 240.714844 134.28125 283.855469 187.496094 283.855469 C 240.714844 283.855469 283.855469 240.714844 283.855469 187.496094 C 283.855469 134.28125 240.714844 91.140625 187.496094 91.140625 Z M 187.496094 91.140625 "/></clipPath></defs><g id="8bd5604695"><g clip-rule="nonzero" clip-path="url(#09e54678f6)"><path style=" stroke:none;fill-rule:nonzero;fill:#0418dd;fill-opacity:1;" d="M 223.636719 151.363281 L 374.949219 151.363281 L 374.949219 223.636719 L 223.636719 223.636719 Z M 223.636719 151.363281 "/></g><g clip-rule="nonzero" clip-path="url(#1bc283b89c)"><path style=" stroke:none;fill-rule:nonzero;fill:#dd1b73;fill-opacity:1;" d="M 0 151.363281 L 151.316406 151.363281 L 151.316406 223.636719 L 0 223.636719 Z M 0 151.363281 "/></g><g clip-rule="nonzero" clip-path="url(#ee4b954f5d)"><g clip-rule="nonzero" clip-path="url(#6bf9c4cd12)"><path style=" stroke:none;fill-rule:nonzero;fill:#ffffff;fill-opacity:1;" d="M 91.140625 91.140625 L 283.859375 91.140625 L 283.859375 283.859375 L 91.140625 283.859375 Z M 91.140625 91.140625 "/></g></g><g clip-rule="nonzero" clip-path="url(#de3b25404f)"><g clip-rule="nonzero" clip-path="url(#57cd835b56)"><path style="fill:none;stroke-width:110;stroke-linecap:butt;stroke-linejoin:miter;stroke:#000000;stroke-opacity:1;stroke-miterlimit:4;" d="M 128.474207 0.000246113 C 57.521077 0.000246113 0.000240113 57.521083 0.000240113 128.474213 C 0.000240113 199.432551 57.521077 256.953388 128.474207 256.953388 C 199.432545 256.953388 256.953382 199.432551 256.953382 128.474213 C 256.953382 57.521083 199.432545 0.000246113 128.474207 0.000246113 Z M 128.474207 0.000246113 " transform="matrix(0.75,0,0,0.75,91.140445,91.14044)"/></g></g></g></svg>