<?xml version="1.0" encoding="UTF-8" standalone="no"?><!DOCTYPE svg PUBLIC "-//W3C//DTD SVG 1.1//EN" "http://www.w3.org/Graphics/SVG/1.1/DTD/svg11.dtd"><svg width="100%" height="100%" viewBox="0 0 2544 3957" version="1.1" xmlns="http://www.w3.org/2000/svg" xmlns:xlink="http://www.w3.org/1999/xlink" xml:space="preserve" xmlns:serif="http://www.serif.com/" style="fill-rule:evenodd;clip-rule:evenodd;stroke-linejoin:round;stroke-miterlimit:2;"><path d="M396.327,3310.58l787.17,-905.1l-1183.5,-983.025l396.327,1888.12Z" style="fill:#fff;"/><path d="M2184.23,3040.03c-0,14.997 -0.365,29.994 -1.095,44.991c-0.759,14.969 -1.854,29.938 -3.314,44.851c-1.489,14.94 -3.314,29.825 -5.505,44.653c-2.218,14.857 -4.774,29.629 -7.695,44.345c-2.921,14.716 -6.206,29.348 -9.857,43.896c-3.651,14.547 -7.667,29.011 -12.02,43.362c-4.353,14.351 -9.044,28.589 -14.099,42.716c-5.055,14.126 -10.447,28.112 -16.204,41.986c-5.729,13.845 -11.824,27.578 -18.227,41.143c-6.403,13.536 -13.143,26.933 -20.22,40.188c-7.078,13.228 -14.464,26.259 -22.187,39.121c-7.695,12.891 -15.727,25.557 -24.068,38.026c-8.341,12.47 -16.963,24.743 -25.894,36.791c-8.958,12.048 -18.17,23.871 -27.691,35.47c-9.52,11.599 -19.321,22.945 -29.376,34.066c-10.082,11.121 -20.417,21.962 -31.033,32.578c-10.615,10.615 -21.484,20.95 -32.577,31.033c-11.122,10.082 -22.496,19.855 -34.066,29.376c-11.599,9.52 -23.422,18.76 -35.471,27.691c-12.076,8.93 -24.32,17.58 -36.79,25.893c-12.469,8.341 -25.163,16.373 -38.026,24.068c-12.862,7.723 -25.921,15.11 -39.149,22.187c-13.228,7.077 -26.624,13.817 -40.188,20.22c-13.565,6.432 -27.27,12.498 -41.116,18.255c-13.873,5.729 -27.859,11.121 -41.985,16.177c-14.127,5.055 -28.365,9.773 -42.716,14.126c-14.351,4.353 -28.815,8.341 -43.362,11.992c-14.548,3.651 -29.18,6.937 -43.896,9.857c-14.716,2.921 -29.488,5.477 -44.345,7.695c-14.828,2.191 -29.713,4.044 -44.654,5.505c-14.912,1.46 -29.881,2.584 -44.878,3.314c-14.969,0.73 -29.966,1.095 -44.963,1.095c-14.997,0 -29.994,-0.365 -44.991,-1.095c-14.968,-0.73 -29.937,-1.854 -44.85,-3.314c-14.941,-1.461 -29.825,-3.314 -44.654,-5.505c-14.856,-2.218 -29.629,-4.774 -44.345,-7.695c-14.716,-2.92 -29.348,-6.206 -43.895,-9.857c-14.548,-3.651 -29.011,-7.639 -43.362,-11.992c-14.351,-4.353 -28.59,-9.071 -42.716,-14.126c-14.126,-5.056 -28.112,-10.448 -41.986,-16.177c-13.845,-5.757 -27.579,-11.823 -41.115,-18.255c-13.565,-6.403 -26.961,-13.143 -40.188,-20.22c-13.256,-7.077 -26.287,-14.464 -39.15,-22.187c-12.89,-7.695 -25.556,-15.727 -38.026,-24.068c-12.469,-8.313 -24.742,-16.963 -36.79,-25.893c-12.048,-8.931 -23.872,-18.171 -35.47,-27.691c-11.599,-9.521 -22.945,-19.294 -34.066,-29.376c-11.122,-10.083 -21.962,-20.418 -32.578,-31.033c-10.616,-10.616 -20.951,-21.457 -31.033,-32.578c-10.054,-11.121 -19.855,-22.467 -29.376,-34.066c-9.52,-11.599 -18.76,-23.422 -27.691,-35.47c-8.931,-12.048 -17.553,-24.321 -25.894,-36.791c-8.341,-12.469 -16.373,-25.135 -24.068,-38.026c-7.723,-12.862 -15.109,-25.893 -22.186,-39.121c-7.077,-13.255 -13.818,-26.652 -20.221,-40.188c-6.431,-13.565 -12.497,-27.298 -18.226,-41.143c-5.758,-13.874 -11.15,-27.86 -16.205,-41.986c-5.055,-14.127 -9.773,-28.365 -14.126,-42.716c-4.353,-14.351 -8.341,-28.815 -11.992,-43.362c-3.651,-14.548 -6.937,-29.18 -9.858,-43.896c-2.92,-14.716 -5.476,-29.488 -7.695,-44.345c-2.19,-14.828 -4.044,-29.713 -5.504,-44.653c-1.461,-14.913 -2.584,-29.882 -3.314,-44.851c-0.73,-14.997 -1.095,-29.994 -1.095,-44.991c-0,-14.997 0.365,-29.993 1.095,-44.962c0.73,-14.997 1.853,-29.938 3.314,-44.879c1.46,-14.941 3.314,-29.825 5.504,-44.654c2.219,-14.856 4.775,-29.628 7.695,-44.344c2.921,-14.717 6.207,-29.348 9.858,-43.896c3.651,-14.548 7.639,-29.011 11.992,-43.362c4.353,-14.351 9.071,-28.59 14.126,-42.716c5.055,-14.126 10.447,-28.112 16.205,-41.986c5.729,-13.845 11.795,-27.55 18.226,-41.115c6.403,-13.565 13.144,-26.961 20.221,-40.188c7.077,-13.228 14.463,-26.287 22.186,-39.15c7.695,-12.862 15.727,-25.528 24.068,-38.026c8.341,-12.469 16.963,-24.714 25.894,-36.762c8.931,-12.048 18.171,-23.871 27.691,-35.47c9.521,-11.599 19.322,-22.973 29.376,-34.066c10.082,-11.121 20.417,-21.99 31.033,-32.606c10.616,-10.588 21.456,-20.951 32.578,-31.005c11.121,-10.082 22.467,-19.883 34.066,-29.404c11.598,-9.52 23.422,-18.732 35.47,-27.691c12.048,-8.931 24.321,-17.552 36.79,-25.893c12.47,-8.341 25.136,-16.345 38.026,-24.068c12.863,-7.724 25.894,-15.11 39.15,-22.187c13.227,-7.077 26.623,-13.817 40.188,-20.221c13.536,-6.403 27.27,-12.497 41.115,-18.226c13.874,-5.757 27.86,-11.15 41.986,-16.205c14.126,-5.055 28.365,-9.745 42.716,-14.098c14.351,-4.353 28.814,-8.369 43.362,-12.02c14.547,-3.623 29.179,-6.909 43.895,-9.858c14.716,-2.92 29.489,-5.476 44.345,-7.695c14.829,-2.19 29.713,-4.016 44.654,-5.504c14.913,-1.46 29.882,-2.556 44.85,-3.286c14.997,-0.758 29.994,-1.123 44.991,-1.123c14.997,-0 29.994,0.365 44.963,1.123c14.997,0.73 29.966,1.826 44.878,3.286c14.941,1.488 29.826,3.314 44.654,5.504c14.857,2.219 29.629,4.775 44.345,7.695c14.716,2.949 29.348,6.235 43.896,9.858c14.547,3.651 29.011,7.667 43.362,12.02c14.351,4.353 28.589,9.043 42.716,14.098c14.126,5.055 28.112,10.448 41.985,16.205c13.846,5.729 27.551,11.823 41.116,18.226c13.564,6.404 26.96,13.144 40.188,20.221c13.228,7.077 26.287,14.463 39.149,22.187c12.863,7.723 25.557,15.727 38.026,24.068c12.47,8.341 24.714,16.962 36.79,25.893c12.049,8.959 23.872,18.171 35.471,27.691c11.57,9.521 22.944,19.322 34.066,29.404c11.093,10.054 21.962,20.417 32.577,31.005c10.616,10.616 20.951,21.485 31.033,32.606c10.055,11.093 19.856,22.467 29.376,34.066c9.521,11.599 18.733,23.422 27.691,35.47c8.931,12.048 17.553,24.293 25.894,36.762c8.341,12.498 16.373,25.164 24.068,38.026c7.723,12.863 15.109,25.922 22.187,39.15c7.077,13.227 13.817,26.623 20.22,40.188c6.403,13.565 12.498,27.27 18.227,41.115c5.757,13.874 11.149,27.86 16.204,41.986c5.055,14.126 9.746,28.365 14.099,42.716c4.353,14.351 8.369,28.814 12.02,43.362c3.651,14.548 6.936,29.179 9.857,43.896c2.921,14.716 5.477,29.488 7.695,44.344c2.191,14.829 4.016,29.713 5.505,44.654c1.46,14.941 2.555,29.882 3.314,44.879c0.73,14.969 1.095,29.965 1.095,44.962Z" style="fill:#fff;fill-rule:nonzero;"/><path d="M2543.38,1270.83c0,20.792 -0.506,41.583 -1.518,62.374c-1.051,20.752 -2.57,41.504 -4.595,62.179c-2.063,20.713 -4.594,41.349 -7.631,61.906c-3.076,20.597 -6.619,41.077 -10.668,61.478c-4.049,20.402 -8.605,40.687 -13.666,60.856c-5.062,20.168 -10.629,40.219 -16.664,60.115c-6.035,19.896 -12.537,39.636 -19.545,59.22c-7.009,19.584 -14.484,38.974 -22.466,58.207c-7.943,19.195 -16.391,38.234 -25.269,57.04c-8.877,18.767 -18.221,37.339 -28.033,55.716c-9.811,18.338 -20.051,36.404 -30.758,54.236c-10.668,17.871 -21.804,35.431 -33.367,52.718c-11.564,17.287 -23.517,34.301 -35.898,51.004c-12.421,16.704 -25.191,33.095 -38.39,49.175c-13.199,16.08 -26.787,31.81 -40.726,47.228c-13.978,15.418 -28.306,30.447 -43.023,45.165c-14.717,14.717 -29.785,29.045 -45.164,43.023c-15.419,13.977 -31.187,27.526 -47.228,40.725c-16.08,13.199 -32.472,26.009 -49.175,38.39c-16.742,12.381 -33.718,24.373 -51.005,35.898c-17.287,11.564 -34.885,22.699 -52.717,33.367c-17.833,10.707 -35.937,20.947 -54.276,30.759c-18.338,9.811 -36.91,19.156 -55.715,28.033c-18.806,8.916 -37.806,17.326 -57.001,25.308c-19.234,7.942 -38.623,15.418 -58.208,22.426c-19.584,7.008 -39.324,13.549 -59.219,19.584c-19.896,6.035 -39.948,11.564 -60.116,16.625c-20.168,5.062 -40.453,9.617 -60.855,13.667c-20.402,4.049 -40.882,7.592 -61.478,10.668c-20.558,3.037 -41.193,5.606 -61.907,7.631c-20.674,2.025 -41.426,3.582 -62.217,4.594c-20.753,1.013 -41.544,1.519 -62.335,1.519c-20.791,-0 -41.583,-0.506 -62.374,-1.519c-20.752,-1.012 -41.504,-2.569 -62.179,-4.594c-20.713,-2.025 -41.348,-4.594 -61.906,-7.631c-20.597,-3.076 -41.076,-6.619 -61.478,-10.668c-20.402,-4.05 -40.687,-8.605 -60.855,-13.667c-20.169,-5.061 -40.22,-10.59 -60.116,-16.625c-19.895,-6.035 -39.635,-12.576 -59.22,-19.584c-19.584,-7.008 -38.973,-14.484 -58.207,-22.426c-19.195,-7.982 -38.234,-16.392 -57.001,-25.308c-18.805,-8.877 -37.377,-18.222 -55.716,-28.033c-18.377,-9.812 -36.443,-20.052 -54.275,-30.759c-17.871,-10.668 -35.431,-21.803 -52.718,-33.367c-17.287,-11.525 -34.301,-23.517 -51.004,-35.898c-16.703,-12.381 -33.095,-25.191 -49.175,-38.39c-16.08,-13.199 -31.81,-26.748 -47.228,-40.725c-15.418,-13.978 -30.447,-28.306 -45.164,-43.023c-14.718,-14.718 -29.046,-29.747 -43.023,-45.165c-13.939,-15.418 -27.527,-31.148 -40.726,-47.228c-13.199,-16.08 -26.009,-32.471 -38.39,-49.175c-12.381,-16.703 -24.334,-33.717 -35.898,-51.004c-11.564,-17.287 -22.699,-34.847 -33.367,-52.718c-10.707,-17.832 -20.947,-35.898 -30.759,-54.236c-9.811,-18.377 -19.156,-36.949 -28.033,-55.716c-8.916,-18.806 -17.326,-37.845 -25.268,-57.04c-7.982,-19.233 -15.457,-38.623 -22.466,-58.207c-7.008,-19.584 -13.549,-39.324 -19.584,-59.22c-6.035,-19.896 -11.564,-39.947 -16.625,-60.115c-5.062,-20.169 -9.617,-40.454 -13.666,-60.856c-4.05,-20.401 -7.593,-40.881 -10.668,-61.478c-3.037,-20.557 -5.607,-41.193 -7.632,-61.906c-2.024,-20.675 -3.582,-41.427 -4.594,-62.179c-1.012,-20.791 -1.518,-41.582 -1.518,-62.374c-0,-20.791 0.506,-41.582 1.518,-62.334c1.012,-20.792 2.57,-41.505 4.594,-62.218c2.025,-20.714 4.595,-41.349 7.632,-61.907c3.075,-20.596 6.618,-41.076 10.668,-61.478c4.049,-20.402 8.604,-40.687 13.666,-60.855c5.061,-20.168 10.59,-40.22 16.625,-60.115c6.035,-19.896 12.576,-39.636 19.584,-59.22c7.009,-19.584 14.484,-38.974 22.466,-58.208c7.942,-19.195 16.352,-38.195 25.268,-57c8.877,-18.806 18.222,-37.378 28.033,-55.716c9.812,-18.339 20.052,-36.443 30.759,-54.275c10.668,-17.833 21.803,-35.392 33.367,-52.718c11.564,-17.287 23.517,-34.263 35.898,-50.966c12.381,-16.703 25.191,-33.094 38.39,-49.175c13.199,-16.08 26.787,-31.848 40.726,-47.228c13.977,-15.418 28.305,-30.486 43.023,-45.203c14.717,-14.678 29.746,-29.045 45.164,-42.984c15.418,-13.978 31.148,-27.566 47.228,-40.765c16.08,-13.199 32.472,-25.969 49.175,-38.389c16.703,-12.382 33.717,-24.335 51.004,-35.898c17.287,-11.564 34.847,-22.661 52.718,-33.368c17.832,-10.707 35.898,-20.947 54.275,-30.758c18.339,-9.812 36.911,-19.156 55.716,-28.033c18.767,-8.877 37.806,-17.326 57.001,-25.269c19.234,-7.982 38.623,-15.457 58.207,-22.465c19.585,-7.009 39.325,-13.511 59.22,-19.546c19.896,-6.035 39.947,-11.602 60.116,-16.664c20.168,-5.022 40.453,-9.578 60.855,-13.666c20.402,-4.049 40.881,-7.592 61.478,-10.668c20.558,-3.037 41.193,-5.568 61.906,-7.631c20.675,-2.025 41.427,-3.543 62.179,-4.556c20.791,-1.051 41.583,-1.557 62.374,-1.557c20.791,-0 41.582,0.506 62.335,1.557c20.791,1.013 41.543,2.531 62.217,4.556c20.714,2.063 41.349,4.594 61.907,7.631c20.596,3.076 41.076,6.619 61.478,10.668c20.402,4.088 40.687,8.644 60.855,13.666c20.168,5.062 40.22,10.629 60.116,16.664c19.895,6.035 39.635,12.537 59.219,19.546c19.585,7.008 38.974,14.483 58.208,22.465c19.195,7.943 38.195,16.392 57.001,25.269c18.805,8.877 37.377,18.221 55.715,28.033c18.339,9.811 36.443,20.051 54.276,30.758c17.832,10.707 35.43,21.804 52.717,33.368c17.287,11.563 34.263,23.516 51.005,35.898c16.703,12.42 33.095,25.19 49.175,38.389c16.041,13.199 31.809,26.787 47.228,40.765c15.379,13.939 30.447,28.306 45.164,42.984c14.717,14.717 29.045,29.785 43.023,45.203c13.939,15.38 27.527,31.148 40.726,47.228c13.199,16.081 25.969,32.472 38.39,49.175c12.381,16.703 24.334,33.679 35.898,50.966c11.563,17.326 22.699,34.885 33.367,52.718c10.707,17.832 20.947,35.936 30.758,54.275c9.812,18.338 19.156,36.91 28.033,55.716c8.878,18.805 17.326,37.805 25.269,57c7.982,19.234 15.457,38.624 22.466,58.208c7.008,19.584 13.51,39.324 19.545,59.22c6.035,19.895 11.602,39.947 16.664,60.115c5.061,20.168 9.617,40.453 13.666,60.855c4.049,20.402 7.592,40.882 10.668,61.478c3.037,20.558 5.568,41.193 7.631,61.907c2.025,20.713 3.544,41.426 4.595,62.218c1.012,20.752 1.518,41.543 1.518,62.334Z" style="fill:#fff;fill-rule:nonzero;"/><g><path d="M1296.46,179.048c586.415,0 1062.5,476.107 1062.5,1062.5c0,586.415 -476.085,1062.5 -1062.5,1062.5c-586.414,0 -1062.5,-476.085 -1062.5,-1062.5c0,-586.393 476.086,-1062.5 1062.5,-1062.5Zm0,708.334c-195.464,-0 -354.166,158.702 -354.166,354.166c-0,195.486 158.702,354.167 354.166,354.167c195.465,-0 354.167,-158.681 354.167,-354.167c0,-195.464 -158.702,-354.166 -354.167,-354.166Z" style="fill:#1d546b;"/></g><path d="M2004.79,3012.38c-0,11.588 -0.282,23.177 -0.847,34.765c-0.586,11.567 -1.432,23.134 -2.56,34.657c-1.151,11.545 -2.561,23.047 -4.254,34.506c-1.714,11.48 -3.689,22.894 -5.946,34.266c-2.257,11.372 -4.796,22.678 -7.617,33.919c-2.821,11.242 -5.925,22.418 -9.288,33.507c-3.364,11.09 -6.988,22.092 -10.894,33.008c-3.907,10.916 -8.073,21.723 -12.522,32.444c-4.427,10.698 -9.136,21.31 -14.084,31.792c-4.948,10.46 -10.157,20.812 -15.625,31.055c-5.469,10.221 -11.177,20.291 -17.144,30.23c-5.947,9.961 -12.153,19.748 -18.599,29.384c-6.445,9.635 -13.107,19.118 -20.008,28.428c-6.923,9.31 -14.041,18.447 -21.398,27.409c-7.357,8.963 -14.93,17.73 -22.699,26.324c-7.791,8.594 -15.777,16.97 -23.98,25.174c-8.204,8.203 -16.602,16.189 -25.174,23.98c-8.594,7.79 -17.383,15.343 -26.324,22.699c-8.963,7.357 -18.099,14.497 -27.409,21.398c-9.331,6.901 -18.793,13.585 -28.429,20.009c-9.635,6.445 -19.444,12.651 -29.383,18.598c-9.939,5.968 -20.031,11.675 -30.252,17.144c-10.221,5.468 -20.573,10.677 -31.055,15.625c-10.481,4.969 -21.072,9.657 -31.77,14.106c-10.721,4.427 -21.528,8.593 -32.444,12.5c-10.916,3.906 -21.918,7.552 -33.008,10.915c-11.089,3.364 -22.266,6.446 -33.507,9.267c-11.241,2.821 -22.548,5.36 -33.919,7.617c-11.372,2.257 -22.787,4.232 -34.267,5.946c-11.458,1.693 -22.96,3.125 -34.505,4.254c-11.523,1.128 -23.09,1.996 -34.679,2.561c-11.566,0.564 -23.155,0.846 -34.744,0.846c-11.588,-0 -23.177,-0.282 -34.765,-0.846c-11.567,-0.565 -23.134,-1.433 -34.657,-2.561c-11.545,-1.129 -23.047,-2.561 -34.505,-4.254c-11.481,-1.714 -22.895,-3.689 -34.267,-5.946c-11.372,-2.257 -22.678,-4.796 -33.919,-7.617c-11.242,-2.821 -22.418,-5.903 -33.507,-9.267c-11.09,-3.363 -22.092,-7.009 -33.008,-10.915c-10.916,-3.907 -21.723,-8.073 -32.444,-12.5c-10.698,-4.449 -21.31,-9.137 -31.77,-14.106c-10.482,-4.948 -20.834,-10.157 -31.055,-15.625c-10.243,-5.469 -20.313,-11.176 -30.252,-17.144c-9.961,-5.947 -19.748,-12.153 -29.384,-18.598c-9.635,-6.424 -19.118,-13.108 -28.428,-20.009c-9.31,-6.901 -18.447,-14.041 -27.409,-21.398c-8.963,-7.356 -17.73,-14.909 -26.324,-22.699c-8.594,-7.791 -16.97,-15.777 -25.174,-23.98c-8.203,-8.204 -16.189,-16.58 -23.98,-25.174c-7.769,-8.594 -15.343,-17.361 -22.699,-26.324c-7.357,-8.962 -14.497,-18.099 -21.398,-27.409c-6.901,-9.31 -13.563,-18.793 -20.009,-28.428c-6.445,-9.636 -12.651,-19.423 -18.598,-29.384c-5.968,-9.939 -11.675,-20.009 -17.144,-30.23c-5.468,-10.243 -10.677,-20.595 -15.625,-31.055c-4.969,-10.482 -9.657,-21.094 -14.084,-31.792c-4.449,-10.721 -8.615,-21.528 -12.522,-32.444c-3.906,-10.916 -7.552,-21.918 -10.915,-33.008c-3.364,-11.089 -6.446,-22.265 -9.267,-33.507c-2.821,-11.241 -5.36,-22.547 -7.617,-33.919c-2.257,-11.372 -4.232,-22.786 -5.946,-34.266c-1.693,-11.459 -3.125,-22.961 -4.254,-34.506c-1.128,-11.523 -1.996,-23.09 -2.561,-34.657c-0.564,-11.588 -0.846,-23.177 -0.846,-34.765c0,-11.589 0.282,-23.178 0.846,-34.744c0.565,-11.589 1.433,-23.134 2.561,-34.679c1.129,-11.545 2.561,-23.047 4.254,-34.505c1.714,-11.48 3.689,-22.895 5.946,-34.267c2.257,-11.371 4.796,-22.678 7.617,-33.919c2.821,-11.241 5.903,-22.418 9.267,-33.507c3.363,-11.09 7.009,-22.092 10.915,-33.008c3.907,-10.916 8.073,-21.723 12.522,-32.443c4.427,-10.699 9.115,-21.29 14.084,-31.771c4.948,-10.482 10.157,-20.834 15.625,-31.055c5.469,-10.221 11.176,-20.313 17.144,-30.252c5.947,-9.939 12.153,-19.726 18.598,-29.383c6.446,-9.636 13.108,-19.098 20.009,-28.408c6.901,-9.309 14.041,-18.446 21.398,-27.408c7.356,-8.963 14.93,-17.752 22.699,-26.324c7.791,-8.594 15.777,-16.992 23.98,-25.195c8.204,-8.182 16.58,-16.19 25.174,-23.959c8.594,-7.791 17.361,-15.364 26.324,-22.721c8.962,-7.357 18.099,-14.475 27.409,-21.398c9.31,-6.901 18.793,-13.563 28.428,-20.008c9.636,-6.446 19.423,-12.631 29.384,-18.599c9.939,-5.967 20.009,-11.675 30.252,-17.144c10.221,-5.468 20.573,-10.677 31.055,-15.625c10.46,-4.948 21.072,-9.657 31.77,-14.084c10.721,-4.449 21.528,-8.615 32.444,-12.522c10.916,-3.906 21.918,-7.53 33.008,-10.894c11.089,-3.363 22.265,-6.467 33.507,-9.288c11.241,-2.799 22.547,-5.338 33.919,-7.617c11.372,-2.257 22.786,-4.232 34.267,-5.946c11.458,-1.693 22.96,-3.103 34.505,-4.254c11.523,-1.128 23.09,-1.974 34.657,-2.539c11.588,-0.586 23.177,-0.868 34.765,-0.868c11.589,0 23.178,0.282 34.744,0.868c11.589,0.565 23.156,1.411 34.679,2.539c11.545,1.151 23.047,2.561 34.505,4.254c11.48,1.714 22.895,3.689 34.267,5.946c11.371,2.279 22.678,4.818 33.919,7.617c11.241,2.821 22.418,5.925 33.507,9.288c11.09,3.364 22.092,6.988 33.008,10.894c10.916,3.907 21.723,8.073 32.444,12.522c10.698,4.427 21.289,9.136 31.77,14.084c10.482,4.948 20.834,10.157 31.055,15.625c10.221,5.469 20.313,11.177 30.252,17.144c9.939,5.968 19.748,12.153 29.383,18.599c9.636,6.445 19.098,13.107 28.429,20.008c9.31,6.923 18.446,14.041 27.409,21.398c8.941,7.357 17.73,14.93 26.324,22.721c8.572,7.769 16.97,15.777 25.174,23.959c8.203,8.203 16.189,16.601 23.98,25.195c7.769,8.572 15.342,17.361 22.699,26.324c7.357,8.962 14.475,18.099 21.398,27.408c6.901,9.31 13.563,18.772 20.008,28.408c6.446,9.657 12.652,19.444 18.599,29.383c5.967,9.939 11.675,20.031 17.144,30.252c5.468,10.221 10.677,20.573 15.625,31.055c4.948,10.481 9.657,21.072 14.084,31.771c4.449,10.72 8.615,21.527 12.522,32.443c3.906,10.916 7.53,21.918 10.894,33.008c3.363,11.089 6.467,22.266 9.288,33.507c2.821,11.241 5.36,22.548 7.617,33.919c2.257,11.372 4.232,22.787 5.946,34.267c1.693,11.458 3.103,22.96 4.254,34.505c1.128,11.545 1.974,23.09 2.56,34.679c0.565,11.566 0.847,23.155 0.847,34.744Z" style="fill:#1d546b;fill-rule:nonzero;"/><path d="M598.89,3135.62l697.656,-831.554l-1048.91,-903.147l351.259,1734.7Z" style="fill:#1d546b;"/></svg>