<svg xmlns="http://www.w3.org/2000/svg" xmlns:xlink="http://www.w3.org/1999/xlink" width="800" zoomAndPan="magnify" viewBox="0 0 600 231.75" height="309" preserveAspectRatio="xMidYMid meet" version="1.2"><defs><clipPath id="cd55f60592"><path d="M 0.324219 0 L 599.675781 0 L 599.675781 231.5 L 0.324219 231.5 Z M 0.324219 0 "/></clipPath></defs><g id="7eb5b22e01"><g clip-rule="nonzero" clip-path="url(#cd55f60592)"><path style=" stroke:none;fill-rule:nonzero;fill:#ffffff;fill-opacity:1;" d="M 0.324219 0 L 599.675781 0 L 599.675781 231.5 L 0.324219 231.5 Z M 0.324219 0 "/><path style=" stroke:none;fill-rule:nonzero;fill:#1d546b;fill-opacity:1;" d="M 0.324219 0 L 599.675781 0 L 599.675781 231.5 L 0.324219 231.5 Z M 0.324219 0 "/></g><g style="fill:#000000;fill-opacity:0.302;"><g transform="translate(49.093086, 148.247871)"><path style="stroke:none" d="M 29.078125 -52.734375 C 33.753906 -52.734375 37.8125 -51.953125 41.25 -50.390625 C 44.6875 -48.835938 47.332031 -46.628906 49.1875 -43.765625 C 51.050781 -40.910156 51.984375 -37.523438 51.984375 -33.609375 C 51.984375 -29.734375 51.050781 -26.351562 49.1875 -23.46875 C 47.332031 -20.582031 44.6875 -18.375 41.25 -16.84375 C 37.8125 -15.3125 33.753906 -14.546875 29.078125 -14.546875 L 18.453125 -14.546875 L 18.453125 0 L 6.25 0 L 6.25 -52.734375 Z M 28.40625 -24.484375 C 32.070312 -24.484375 34.859375 -25.273438 36.765625 -26.859375 C 38.671875 -28.441406 39.625 -30.691406 39.625 -33.609375 C 39.625 -36.566406 38.671875 -38.835938 36.765625 -40.421875 C 34.859375 -42.003906 32.070312 -42.796875 28.40625 -42.796875 L 18.453125 -42.796875 L 18.453125 -24.484375 Z M 28.40625 -24.484375 "/></g></g><g style="fill:#000000;fill-opacity:0.302;"><g transform="translate(103.416981, 148.247871)"><path style="stroke:none" d="M 24.71875 0.609375 C 20.445312 0.609375 16.613281 -0.28125 13.21875 -2.0625 C 9.832031 -3.851562 7.179688 -6.328125 5.265625 -9.484375 C 3.359375 -12.648438 2.40625 -16.242188 2.40625 -20.265625 C 2.40625 -24.285156 3.359375 -27.875 5.265625 -31.03125 C 7.179688 -34.195312 9.832031 -36.671875 13.21875 -38.453125 C 16.613281 -40.242188 20.445312 -41.140625 24.71875 -41.140625 C 28.976562 -41.140625 32.789062 -40.242188 36.15625 -38.453125 C 39.53125 -36.671875 42.171875 -34.195312 44.078125 -31.03125 C 45.984375 -27.875 46.9375 -24.285156 46.9375 -20.265625 C 46.9375 -16.242188 45.984375 -12.648438 44.078125 -9.484375 C 42.171875 -6.328125 39.53125 -3.851562 36.15625 -2.0625 C 32.789062 -0.28125 28.976562 0.609375 24.71875 0.609375 Z M 24.71875 -9.046875 C 27.726562 -9.046875 30.195312 -10.0625 32.125 -12.09375 C 34.0625 -14.125 35.03125 -16.847656 35.03125 -20.265625 C 35.03125 -23.679688 34.0625 -26.40625 32.125 -28.4375 C 30.195312 -30.476562 27.726562 -31.5 24.71875 -31.5 C 21.695312 -31.5 19.207031 -30.476562 17.25 -28.4375 C 15.289062 -26.40625 14.3125 -23.679688 14.3125 -20.265625 C 14.3125 -16.847656 15.289062 -14.125 17.25 -12.09375 C 19.207031 -10.0625 21.695312 -9.046875 24.71875 -9.046875 Z M 24.71875 -9.046875 "/></g></g><g style="fill:#000000;fill-opacity:0.302;"><g transform="translate(152.768103, 148.247871)"><path style="stroke:none" d="M 5.421875 -40.53125 L 17.171875 -40.53125 L 17.171875 0 L 5.421875 0 Z M 11.296875 -46.1875 C 9.140625 -46.1875 7.382812 -46.8125 6.03125 -48.0625 C 4.675781 -49.320312 4 -50.878906 4 -52.734375 C 4 -54.597656 4.675781 -56.15625 6.03125 -57.40625 C 7.382812 -58.664062 9.140625 -59.296875 11.296875 -59.296875 C 13.460938 -59.296875 15.222656 -58.691406 16.578125 -57.484375 C 17.929688 -56.273438 18.609375 -54.769531 18.609375 -52.96875 C 18.609375 -51.007812 17.929688 -49.390625 16.578125 -48.109375 C 15.222656 -46.828125 13.460938 -46.1875 11.296875 -46.1875 Z M 11.296875 -46.1875 "/></g></g><g style="fill:#000000;fill-opacity:0.302;"><g transform="translate(175.447013, 148.247871)"><path style="stroke:none" d="M 30.0625 -41.140625 C 35.082031 -41.140625 39.132812 -39.628906 42.21875 -36.609375 C 45.3125 -33.597656 46.859375 -29.128906 46.859375 -23.203125 L 46.859375 0 L 35.109375 0 L 35.109375 -21.390625 C 35.109375 -24.609375 34.40625 -27.007812 33 -28.59375 C 31.59375 -30.175781 29.554688 -30.96875 26.890625 -30.96875 C 23.929688 -30.96875 21.570312 -30.050781 19.8125 -28.21875 C 18.050781 -26.382812 17.171875 -23.660156 17.171875 -20.046875 L 17.171875 0 L 5.421875 0 L 5.421875 -40.53125 L 16.65625 -40.53125 L 16.65625 -35.78125 C 18.207031 -37.488281 20.140625 -38.804688 22.453125 -39.734375 C 24.765625 -40.671875 27.300781 -41.140625 30.0625 -41.140625 Z M 30.0625 -41.140625 "/></g></g><g style="fill:#000000;fill-opacity:0.302;"><g transform="translate(227.510554, 148.247871)"><path style="stroke:none" d="M 31.5625 -1.953125 C 30.414062 -1.097656 29 -0.457031 27.3125 -0.03125 C 25.625 0.394531 23.851562 0.609375 22 0.609375 C 17.175781 0.609375 13.445312 -0.617188 10.8125 -3.078125 C 8.175781 -5.546875 6.859375 -9.164062 6.859375 -13.9375 L 6.859375 -30.59375 L 0.609375 -30.59375 L 0.609375 -39.625 L 6.859375 -39.625 L 6.859375 -49.5 L 18.609375 -49.5 L 18.609375 -39.625 L 28.703125 -39.625 L 28.703125 -30.59375 L 18.609375 -30.59375 L 18.609375 -14.09375 C 18.609375 -12.382812 19.046875 -11.0625 19.921875 -10.125 C 20.804688 -9.195312 22.050781 -8.734375 23.65625 -8.734375 C 25.519531 -8.734375 27.101562 -9.238281 28.40625 -10.25 Z M 31.5625 -1.953125 "/></g></g><g style="fill:#000000;fill-opacity:0.302;"><g transform="translate(260.285737, 148.247871)"><path style="stroke:none" d=""/></g></g><g style="fill:#000000;fill-opacity:0.302;"><g transform="translate(281.608432, 148.247871)"><path style="stroke:none" d="M 42.34375 -9.953125 L 42.34375 0 L 2.484375 0 L 2.484375 -7.90625 L 22.828125 -27.125 C 24.984375 -29.1875 26.4375 -30.957031 27.1875 -32.4375 C 27.945312 -33.914062 28.328125 -35.382812 28.328125 -36.84375 C 28.328125 -38.945312 27.609375 -40.5625 26.171875 -41.6875 C 24.742188 -42.820312 22.648438 -43.390625 19.890625 -43.390625 C 17.578125 -43.390625 15.488281 -42.953125 13.625 -42.078125 C 11.769531 -41.203125 10.21875 -39.882812 8.96875 -38.125 L 0.078125 -43.84375 C 2.140625 -46.914062 4.976562 -49.316406 8.59375 -51.046875 C 12.207031 -52.773438 16.347656 -53.640625 21.015625 -53.640625 C 24.929688 -53.640625 28.359375 -53 31.296875 -51.71875 C 34.242188 -50.4375 36.53125 -48.628906 38.15625 -46.296875 C 39.789062 -43.960938 40.609375 -41.210938 40.609375 -38.046875 C 40.609375 -35.179688 40.003906 -32.492188 38.796875 -29.984375 C 37.597656 -27.472656 35.265625 -24.609375 31.796875 -21.390625 L 19.671875 -9.953125 Z M 42.34375 -9.953125 "/></g></g><g style="fill:#000000;fill-opacity:0.302;"><g transform="translate(326.06212, 148.247871)"><path style="stroke:none" d=""/></g></g><g style="fill:#000000;fill-opacity:0.302;"><g transform="translate(347.384815, 148.247871)"><path style="stroke:none" d="M 29.078125 -52.734375 C 33.753906 -52.734375 37.8125 -51.953125 41.25 -50.390625 C 44.6875 -48.835938 47.332031 -46.628906 49.1875 -43.765625 C 51.050781 -40.910156 51.984375 -37.523438 51.984375 -33.609375 C 51.984375 -29.734375 51.050781 -26.351562 49.1875 -23.46875 C 47.332031 -20.582031 44.6875 -18.375 41.25 -16.84375 C 37.8125 -15.3125 33.753906 -14.546875 29.078125 -14.546875 L 18.453125 -14.546875 L 18.453125 0 L 6.25 0 L 6.25 -52.734375 Z M 28.40625 -24.484375 C 32.070312 -24.484375 34.859375 -25.273438 36.765625 -26.859375 C 38.671875 -28.441406 39.625 -30.691406 39.625 -33.609375 C 39.625 -36.566406 38.671875 -38.835938 36.765625 -40.421875 C 34.859375 -42.003906 32.070312 -42.796875 28.40625 -42.796875 L 18.453125 -42.796875 L 18.453125 -24.484375 Z M 28.40625 -24.484375 "/></g></g><g style="fill:#000000;fill-opacity:0.302;"><g transform="translate(401.70871, 148.247871)"><path style="stroke:none" d="M 24.71875 0.609375 C 20.445312 0.609375 16.613281 -0.28125 13.21875 -2.0625 C 9.832031 -3.851562 7.179688 -6.328125 5.265625 -9.484375 C 3.359375 -12.648438 2.40625 -16.242188 2.40625 -20.265625 C 2.40625 -24.285156 3.359375 -27.875 5.265625 -31.03125 C 7.179688 -34.195312 9.832031 -36.671875 13.21875 -38.453125 C 16.613281 -40.242188 20.445312 -41.140625 24.71875 -41.140625 C 28.976562 -41.140625 32.789062 -40.242188 36.15625 -38.453125 C 39.53125 -36.671875 42.171875 -34.195312 44.078125 -31.03125 C 45.984375 -27.875 46.9375 -24.285156 46.9375 -20.265625 C 46.9375 -16.242188 45.984375 -12.648438 44.078125 -9.484375 C 42.171875 -6.328125 39.53125 -3.851562 36.15625 -2.0625 C 32.789062 -0.28125 28.976562 0.609375 24.71875 0.609375 Z M 24.71875 -9.046875 C 27.726562 -9.046875 30.195312 -10.0625 32.125 -12.09375 C 34.0625 -14.125 35.03125 -16.847656 35.03125 -20.265625 C 35.03125 -23.679688 34.0625 -26.40625 32.125 -28.4375 C 30.195312 -30.476562 27.726562 -31.5 24.71875 -31.5 C 21.695312 -31.5 19.207031 -30.476562 17.25 -28.4375 C 15.289062 -26.40625 14.3125 -23.679688 14.3125 -20.265625 C 14.3125 -16.847656 15.289062 -14.125 17.25 -12.09375 C 19.207031 -10.0625 21.695312 -9.046875 24.71875 -9.046875 Z M 24.71875 -9.046875 "/></g></g><g style="fill:#000000;fill-opacity:0.302;"><g transform="translate(451.059843, 148.247871)"><path style="stroke:none" d="M 5.421875 -40.53125 L 17.171875 -40.53125 L 17.171875 0 L 5.421875 0 Z M 11.296875 -46.1875 C 9.140625 -46.1875 7.382812 -46.8125 6.03125 -48.0625 C 4.675781 -49.320312 4 -50.878906 4 -52.734375 C 4 -54.597656 4.675781 -56.15625 6.03125 -57.40625 C 7.382812 -58.664062 9.140625 -59.296875 11.296875 -59.296875 C 13.460938 -59.296875 15.222656 -58.691406 16.578125 -57.484375 C 17.929688 -56.273438 18.609375 -54.769531 18.609375 -52.96875 C 18.609375 -51.007812 17.929688 -49.390625 16.578125 -48.109375 C 15.222656 -46.828125 13.460938 -46.1875 11.296875 -46.1875 Z M 11.296875 -46.1875 "/></g></g><g style="fill:#000000;fill-opacity:0.302;"><g transform="translate(473.738762, 148.247871)"><path style="stroke:none" d="M 30.0625 -41.140625 C 35.082031 -41.140625 39.132812 -39.628906 42.21875 -36.609375 C 45.3125 -33.597656 46.859375 -29.128906 46.859375 -23.203125 L 46.859375 0 L 35.109375 0 L 35.109375 -21.390625 C 35.109375 -24.609375 34.40625 -27.007812 33 -28.59375 C 31.59375 -30.175781 29.554688 -30.96875 26.890625 -30.96875 C 23.929688 -30.96875 21.570312 -30.050781 19.8125 -28.21875 C 18.050781 -26.382812 17.171875 -23.660156 17.171875 -20.046875 L 17.171875 0 L 5.421875 0 L 5.421875 -40.53125 L 16.65625 -40.53125 L 16.65625 -35.78125 C 18.207031 -37.488281 20.140625 -38.804688 22.453125 -39.734375 C 24.765625 -40.671875 27.300781 -41.140625 30.0625 -41.140625 Z M 30.0625 -41.140625 "/></g></g><g style="fill:#000000;fill-opacity:0.302;"><g transform="translate(525.802303, 148.247871)"><path style="stroke:none" d="M 31.5625 -1.953125 C 30.414062 -1.097656 29 -0.457031 27.3125 -0.03125 C 25.625 0.394531 23.851562 0.609375 22 0.609375 C 17.175781 0.609375 13.445312 -0.617188 10.8125 -3.078125 C 8.175781 -5.546875 6.859375 -9.164062 6.859375 -13.9375 L 6.859375 -30.59375 L 0.609375 -30.59375 L 0.609375 -39.625 L 6.859375 -39.625 L 6.859375 -49.5 L 18.609375 -49.5 L 18.609375 -39.625 L 28.703125 -39.625 L 28.703125 -30.59375 L 18.609375 -30.59375 L 18.609375 -14.09375 C 18.609375 -12.382812 19.046875 -11.0625 19.921875 -10.125 C 20.804688 -9.195312 22.050781 -8.734375 23.65625 -8.734375 C 25.519531 -8.734375 27.101562 -9.238281 28.40625 -10.25 Z M 31.5625 -1.953125 "/></g></g><g style="fill:#ffffff;fill-opacity:1;"><g transform="translate(45.257581, 142.770205)"><path style="stroke:none" d="M 29.078125 -52.734375 C 33.753906 -52.734375 37.8125 -51.953125 41.25 -50.390625 C 44.6875 -48.835938 47.332031 -46.628906 49.1875 -43.765625 C 51.050781 -40.910156 51.984375 -37.523438 51.984375 -33.609375 C 51.984375 -29.734375 51.050781 -26.351562 49.1875 -23.46875 C 47.332031 -20.582031 44.6875 -18.375 41.25 -16.84375 C 37.8125 -15.3125 33.753906 -14.546875 29.078125 -14.546875 L 18.453125 -14.546875 L 18.453125 0 L 6.25 0 L 6.25 -52.734375 Z M 28.40625 -24.484375 C 32.070312 -24.484375 34.859375 -25.273438 36.765625 -26.859375 C 38.671875 -28.441406 39.625 -30.691406 39.625 -33.609375 C 39.625 -36.566406 38.671875 -38.835938 36.765625 -40.421875 C 34.859375 -42.003906 32.070312 -42.796875 28.40625 -42.796875 L 18.453125 -42.796875 L 18.453125 -24.484375 Z M 28.40625 -24.484375 "/></g></g><g style="fill:#ffffff;fill-opacity:1;"><g transform="translate(99.581477, 142.770205)"><path style="stroke:none" d="M 24.71875 0.609375 C 20.445312 0.609375 16.613281 -0.28125 13.21875 -2.0625 C 9.832031 -3.851562 7.179688 -6.328125 5.265625 -9.484375 C 3.359375 -12.648438 2.40625 -16.242188 2.40625 -20.265625 C 2.40625 -24.285156 3.359375 -27.875 5.265625 -31.03125 C 7.179688 -34.195312 9.832031 -36.671875 13.21875 -38.453125 C 16.613281 -40.242188 20.445312 -41.140625 24.71875 -41.140625 C 28.976562 -41.140625 32.789062 -40.242188 36.15625 -38.453125 C 39.53125 -36.671875 42.171875 -34.195312 44.078125 -31.03125 C 45.984375 -27.875 46.9375 -24.285156 46.9375 -20.265625 C 46.9375 -16.242188 45.984375 -12.648438 44.078125 -9.484375 C 42.171875 -6.328125 39.53125 -3.851562 36.15625 -2.0625 C 32.789062 -0.28125 28.976562 0.609375 24.71875 0.609375 Z M 24.71875 -9.046875 C 27.726562 -9.046875 30.195312 -10.0625 32.125 -12.09375 C 34.0625 -14.125 35.03125 -16.847656 35.03125 -20.265625 C 35.03125 -23.679688 34.0625 -26.40625 32.125 -28.4375 C 30.195312 -30.476562 27.726562 -31.5 24.71875 -31.5 C 21.695312 -31.5 19.207031 -30.476562 17.25 -28.4375 C 15.289062 -26.40625 14.3125 -23.679688 14.3125 -20.265625 C 14.3125 -16.847656 15.289062 -14.125 17.25 -12.09375 C 19.207031 -10.0625 21.695312 -9.046875 24.71875 -9.046875 Z M 24.71875 -9.046875 "/></g></g><g style="fill:#ffffff;fill-opacity:1;"><g transform="translate(148.932599, 142.770205)"><path style="stroke:none" d="M 5.421875 -40.53125 L 17.171875 -40.53125 L 17.171875 0 L 5.421875 0 Z M 11.296875 -46.1875 C 9.140625 -46.1875 7.382812 -46.8125 6.03125 -48.0625 C 4.675781 -49.320312 4 -50.878906 4 -52.734375 C 4 -54.597656 4.675781 -56.15625 6.03125 -57.40625 C 7.382812 -58.664062 9.140625 -59.296875 11.296875 -59.296875 C 13.460938 -59.296875 15.222656 -58.691406 16.578125 -57.484375 C 17.929688 -56.273438 18.609375 -54.769531 18.609375 -52.96875 C 18.609375 -51.007812 17.929688 -49.390625 16.578125 -48.109375 C 15.222656 -46.828125 13.460938 -46.1875 11.296875 -46.1875 Z M 11.296875 -46.1875 "/></g></g><g style="fill:#ffffff;fill-opacity:1;"><g transform="translate(171.611508, 142.770205)"><path style="stroke:none" d="M 30.0625 -41.140625 C 35.082031 -41.140625 39.132812 -39.628906 42.21875 -36.609375 C 45.3125 -33.597656 46.859375 -29.128906 46.859375 -23.203125 L 46.859375 0 L 35.109375 0 L 35.109375 -21.390625 C 35.109375 -24.609375 34.40625 -27.007812 33 -28.59375 C 31.59375 -30.175781 29.554688 -30.96875 26.890625 -30.96875 C 23.929688 -30.96875 21.570312 -30.050781 19.8125 -28.21875 C 18.050781 -26.382812 17.171875 -23.660156 17.171875 -20.046875 L 17.171875 0 L 5.421875 0 L 5.421875 -40.53125 L 16.65625 -40.53125 L 16.65625 -35.78125 C 18.207031 -37.488281 20.140625 -38.804688 22.453125 -39.734375 C 24.765625 -40.671875 27.300781 -41.140625 30.0625 -41.140625 Z M 30.0625 -41.140625 "/></g></g><g style="fill:#ffffff;fill-opacity:1;"><g transform="translate(223.675049, 142.770205)"><path style="stroke:none" d="M 31.5625 -1.953125 C 30.414062 -1.097656 29 -0.457031 27.3125 -0.03125 C 25.625 0.394531 23.851562 0.609375 22 0.609375 C 17.175781 0.609375 13.445312 -0.617188 10.8125 -3.078125 C 8.175781 -5.546875 6.859375 -9.164062 6.859375 -13.9375 L 6.859375 -30.59375 L 0.609375 -30.59375 L 0.609375 -39.625 L 6.859375 -39.625 L 6.859375 -49.5 L 18.609375 -49.5 L 18.609375 -39.625 L 28.703125 -39.625 L 28.703125 -30.59375 L 18.609375 -30.59375 L 18.609375 -14.09375 C 18.609375 -12.382812 19.046875 -11.0625 19.921875 -10.125 C 20.804688 -9.195312 22.050781 -8.734375 23.65625 -8.734375 C 25.519531 -8.734375 27.101562 -9.238281 28.40625 -10.25 Z M 31.5625 -1.953125 "/></g></g><g style="fill:#ffffff;fill-opacity:1;"><g transform="translate(256.450233, 142.770205)"><path style="stroke:none" d=""/></g></g><g style="fill:#ffffff;fill-opacity:1;"><g transform="translate(277.772927, 142.770205)"><path style="stroke:none" d="M 42.34375 -9.953125 L 42.34375 0 L 2.484375 0 L 2.484375 -7.90625 L 22.828125 -27.125 C 24.984375 -29.1875 26.4375 -30.957031 27.1875 -32.4375 C 27.945312 -33.914062 28.328125 -35.382812 28.328125 -36.84375 C 28.328125 -38.945312 27.609375 -40.5625 26.171875 -41.6875 C 24.742188 -42.820312 22.648438 -43.390625 19.890625 -43.390625 C 17.578125 -43.390625 15.488281 -42.953125 13.625 -42.078125 C 11.769531 -41.203125 10.21875 -39.882812 8.96875 -38.125 L 0.078125 -43.84375 C 2.140625 -46.914062 4.976562 -49.316406 8.59375 -51.046875 C 12.207031 -52.773438 16.347656 -53.640625 21.015625 -53.640625 C 24.929688 -53.640625 28.359375 -53 31.296875 -51.71875 C 34.242188 -50.4375 36.53125 -48.628906 38.15625 -46.296875 C 39.789062 -43.960938 40.609375 -41.210938 40.609375 -38.046875 C 40.609375 -35.179688 40.003906 -32.492188 38.796875 -29.984375 C 37.597656 -27.472656 35.265625 -24.609375 31.796875 -21.390625 L 19.671875 -9.953125 Z M 42.34375 -9.953125 "/></g></g><g style="fill:#ffffff;fill-opacity:1;"><g transform="translate(322.226616, 142.770205)"><path style="stroke:none" d=""/></g></g><g style="fill:#ffffff;fill-opacity:1;"><g transform="translate(343.54931, 142.770205)"><path style="stroke:none" d="M 29.078125 -52.734375 C 33.753906 -52.734375 37.8125 -51.953125 41.25 -50.390625 C 44.6875 -48.835938 47.332031 -46.628906 49.1875 -43.765625 C 51.050781 -40.910156 51.984375 -37.523438 51.984375 -33.609375 C 51.984375 -29.734375 51.050781 -26.351562 49.1875 -23.46875 C 47.332031 -20.582031 44.6875 -18.375 41.25 -16.84375 C 37.8125 -15.3125 33.753906 -14.546875 29.078125 -14.546875 L 18.453125 -14.546875 L 18.453125 0 L 6.25 0 L 6.25 -52.734375 Z M 28.40625 -24.484375 C 32.070312 -24.484375 34.859375 -25.273438 36.765625 -26.859375 C 38.671875 -28.441406 39.625 -30.691406 39.625 -33.609375 C 39.625 -36.566406 38.671875 -38.835938 36.765625 -40.421875 C 34.859375 -42.003906 32.070312 -42.796875 28.40625 -42.796875 L 18.453125 -42.796875 L 18.453125 -24.484375 Z M 28.40625 -24.484375 "/></g></g><g style="fill:#ffffff;fill-opacity:1;"><g transform="translate(397.873206, 142.770205)"><path style="stroke:none" d="M 24.71875 0.609375 C 20.445312 0.609375 16.613281 -0.28125 13.21875 -2.0625 C 9.832031 -3.851562 7.179688 -6.328125 5.265625 -9.484375 C 3.359375 -12.648438 2.40625 -16.242188 2.40625 -20.265625 C 2.40625 -24.285156 3.359375 -27.875 5.265625 -31.03125 C 7.179688 -34.195312 9.832031 -36.671875 13.21875 -38.453125 C 16.613281 -40.242188 20.445312 -41.140625 24.71875 -41.140625 C 28.976562 -41.140625 32.789062 -40.242188 36.15625 -38.453125 C 39.53125 -36.671875 42.171875 -34.195312 44.078125 -31.03125 C 45.984375 -27.875 46.9375 -24.285156 46.9375 -20.265625 C 46.9375 -16.242188 45.984375 -12.648438 44.078125 -9.484375 C 42.171875 -6.328125 39.53125 -3.851562 36.15625 -2.0625 C 32.789062 -0.28125 28.976562 0.609375 24.71875 0.609375 Z M 24.71875 -9.046875 C 27.726562 -9.046875 30.195312 -10.0625 32.125 -12.09375 C 34.0625 -14.125 35.03125 -16.847656 35.03125 -20.265625 C 35.03125 -23.679688 34.0625 -26.40625 32.125 -28.4375 C 30.195312 -30.476562 27.726562 -31.5 24.71875 -31.5 C 21.695312 -31.5 19.207031 -30.476562 17.25 -28.4375 C 15.289062 -26.40625 14.3125 -23.679688 14.3125 -20.265625 C 14.3125 -16.847656 15.289062 -14.125 17.25 -12.09375 C 19.207031 -10.0625 21.695312 -9.046875 24.71875 -9.046875 Z M 24.71875 -9.046875 "/></g></g><g style="fill:#ffffff;fill-opacity:1;"><g transform="translate(447.224338, 142.770205)"><path style="stroke:none" d="M 5.421875 -40.53125 L 17.171875 -40.53125 L 17.171875 0 L 5.421875 0 Z M 11.296875 -46.1875 C 9.140625 -46.1875 7.382812 -46.8125 6.03125 -48.0625 C 4.675781 -49.320312 4 -50.878906 4 -52.734375 C 4 -54.597656 4.675781 -56.15625 6.03125 -57.40625 C 7.382812 -58.664062 9.140625 -59.296875 11.296875 -59.296875 C 13.460938 -59.296875 15.222656 -58.691406 16.578125 -57.484375 C 17.929688 -56.273438 18.609375 -54.769531 18.609375 -52.96875 C 18.609375 -51.007812 17.929688 -49.390625 16.578125 -48.109375 C 15.222656 -46.828125 13.460938 -46.1875 11.296875 -46.1875 Z M 11.296875 -46.1875 "/></g></g><g style="fill:#ffffff;fill-opacity:1;"><g transform="translate(469.903258, 142.770205)"><path style="stroke:none" d="M 30.0625 -41.140625 C 35.082031 -41.140625 39.132812 -39.628906 42.21875 -36.609375 C 45.3125 -33.597656 46.859375 -29.128906 46.859375 -23.203125 L 46.859375 0 L 35.109375 0 L 35.109375 -21.390625 C 35.109375 -24.609375 34.40625 -27.007812 33 -28.59375 C 31.59375 -30.175781 29.554688 -30.96875 26.890625 -30.96875 C 23.929688 -30.96875 21.570312 -30.050781 19.8125 -28.21875 C 18.050781 -26.382812 17.171875 -23.660156 17.171875 -20.046875 L 17.171875 0 L 5.421875 0 L 5.421875 -40.53125 L 16.65625 -40.53125 L 16.65625 -35.78125 C 18.207031 -37.488281 20.140625 -38.804688 22.453125 -39.734375 C 24.765625 -40.671875 27.300781 -41.140625 30.0625 -41.140625 Z M 30.0625 -41.140625 "/></g></g><g style="fill:#ffffff;fill-opacity:1;"><g transform="translate(521.966799, 142.770205)"><path style="stroke:none" d="M 31.5625 -1.953125 C 30.414062 -1.097656 29 -0.457031 27.3125 -0.03125 C 25.625 0.394531 23.851562 0.609375 22 0.609375 C 17.175781 0.609375 13.445312 -0.617188 10.8125 -3.078125 C 8.175781 -5.546875 6.859375 -9.164062 6.859375 -13.9375 L 6.859375 -30.59375 L 0.609375 -30.59375 L 0.609375 -39.625 L 6.859375 -39.625 L 6.859375 -49.5 L 18.609375 -49.5 L 18.609375 -39.625 L 28.703125 -39.625 L 28.703125 -30.59375 L 18.609375 -30.59375 L 18.609375 -14.09375 C 18.609375 -12.382812 19.046875 -11.0625 19.921875 -10.125 C 20.804688 -9.195312 22.050781 -8.734375 23.65625 -8.734375 C 25.519531 -8.734375 27.101562 -9.238281 28.40625 -10.25 Z M 31.5625 -1.953125 "/></g></g></g></svg>