<svg xmlns="http://www.w3.org/2000/svg" xmlns:xlink="http://www.w3.org/1999/xlink" width="1000" zoomAndPan="magnify" viewBox="0 0 750 749.999995" height="1000" preserveAspectRatio="xMidYMid meet" version="1.2"><g id="481e759839"><rect x="0" width="750" y="0" height="749.999995" style="fill:#ffffff;fill-opacity:1;stroke:none;"/><rect x="0" width="750" y="0" height="749.999995" style="fill:#ffffff;fill-opacity:1;stroke:none;"/><path style=" stroke:none;fill-rule:evenodd;fill:#1d546b;fill-opacity:1;" d="M 0 0 L 749.941406 0 L 749.941406 749.917969 L 0 749.917969 Z M 0 0 "/><path style=" stroke:none;fill-rule:evenodd;fill:#ffffff;fill-opacity:1;" d="M 374.96875 56.246094 C 480.515625 56.246094 566.203125 141.933594 566.203125 247.480469 C 566.203125 353.027344 480.515625 438.714844 374.96875 438.714844 C 269.425781 438.714844 183.734375 353.027344 183.734375 247.480469 C 183.734375 141.933594 269.425781 56.246094 374.96875 56.246094 Z M 374.96875 183.734375 C 339.789062 183.734375 311.226562 212.296875 311.226562 247.480469 C 311.226562 282.660156 339.789062 311.226562 374.96875 311.226562 C 410.152344 311.226562 438.714844 282.660156 438.714844 247.480469 C 438.714844 212.296875 410.152344 183.734375 374.96875 183.734375 Z M 374.96875 183.734375 "/><path style=" stroke:none;fill-rule:nonzero;fill:#ffffff;fill-opacity:1;" d="M 502.460938 566.203125 C 502.460938 568.289062 502.40625 570.375 502.304688 572.460938 C 502.203125 574.542969 502.050781 576.625 501.84375 578.699219 C 501.640625 580.777344 501.386719 582.847656 501.078125 584.910156 C 500.773438 586.976562 500.417969 589.03125 500.007812 591.074219 C 499.601562 593.121094 499.144531 595.15625 498.636719 597.179688 C 498.132812 599.207031 497.574219 601.214844 496.96875 603.210938 C 496.363281 605.210938 495.710938 607.191406 495.007812 609.152344 C 494.304688 611.117188 493.554688 613.066406 492.753906 614.992188 C 491.957031 616.917969 491.109375 618.828125 490.21875 620.714844 C 489.328125 622.597656 488.390625 624.460938 487.40625 626.300781 C 486.421875 628.140625 485.394531 629.957031 484.320312 631.746094 C 483.25 633.535156 482.132812 635.296875 480.972656 637.035156 C 479.8125 638.769531 478.613281 640.472656 477.371094 642.148438 C 476.128906 643.824219 474.84375 645.46875 473.519531 647.082031 C 472.195312 648.695312 470.835938 650.273438 469.433594 651.820312 C 468.03125 653.367188 466.59375 654.878906 465.117188 656.351562 C 463.644531 657.828125 462.132812 659.265625 460.585938 660.667969 C 459.039062 662.070312 457.460938 663.429688 455.847656 664.753906 C 454.234375 666.078125 452.589844 667.363281 450.914062 668.605469 C 449.238281 669.847656 447.535156 671.046875 445.800781 672.207031 C 444.0625 673.367188 442.300781 674.484375 440.511719 675.554688 C 438.722656 676.628906 436.90625 677.65625 435.066406 678.640625 C 433.226562 679.625 431.363281 680.5625 429.476562 681.453125 C 427.59375 682.34375 425.683594 683.191406 423.757812 683.988281 C 421.828125 684.789062 419.882812 685.539062 417.917969 686.242188 C 415.953125 686.945312 413.972656 687.597656 411.976562 688.203125 C 409.980469 688.808594 407.972656 689.367188 405.945312 689.871094 C 403.921875 690.378906 401.886719 690.835938 399.839844 691.242188 C 397.796875 691.652344 395.738281 692.007812 393.675781 692.3125 C 391.613281 692.621094 389.542969 692.875 387.464844 693.078125 C 385.390625 693.285156 383.308594 693.4375 381.226562 693.539062 C 379.140625 693.644531 377.054688 693.695312 374.96875 693.695312 C 372.882812 693.695312 370.796875 693.644531 368.714844 693.539062 C 366.628906 693.4375 364.550781 693.285156 362.472656 693.078125 C 360.398438 692.875 358.328125 692.621094 356.261719 692.3125 C 354.199219 692.007812 352.144531 691.652344 350.097656 691.242188 C 348.050781 690.835938 346.015625 690.378906 343.992188 689.871094 C 341.96875 689.367188 339.957031 688.808594 337.960938 688.203125 C 335.964844 687.597656 333.984375 686.945312 332.019531 686.242188 C 330.054688 685.539062 328.109375 684.789062 326.179688 683.988281 C 324.253906 683.191406 322.347656 682.34375 320.460938 681.453125 C 318.574219 680.5625 316.710938 679.625 314.871094 678.640625 C 313.03125 677.65625 311.214844 676.628906 309.425781 675.554688 C 307.636719 674.484375 305.875 673.367188 304.140625 672.207031 C 302.40625 671.046875 300.699219 669.847656 299.023438 668.605469 C 297.347656 667.363281 295.703125 666.078125 294.089844 664.753906 C 292.476562 663.429688 290.898438 662.070312 289.351562 660.667969 C 287.804688 659.265625 286.296875 657.828125 284.820312 656.351562 C 283.34375 654.878906 281.90625 653.367188 280.503906 651.820312 C 279.105469 650.273438 277.742188 648.695312 276.417969 647.082031 C 275.09375 645.46875 273.8125 643.824219 272.570312 642.148438 C 271.324219 640.472656 270.125 638.769531 268.964844 637.035156 C 267.804688 635.296875 266.691406 633.535156 265.617188 631.746094 C 264.546875 629.957031 263.515625 628.140625 262.535156 626.300781 C 261.550781 624.460938 260.613281 622.597656 259.71875 620.710938 C 258.828125 618.828125 257.984375 616.917969 257.183594 614.992188 C 256.386719 613.066406 255.636719 611.117188 254.933594 609.152344 C 254.230469 607.191406 253.574219 605.210938 252.96875 603.210938 C 252.363281 601.214844 251.808594 599.207031 251.300781 597.179688 C 250.792969 595.15625 250.335938 593.121094 249.929688 591.074219 C 249.523438 589.03125 249.164062 586.972656 248.859375 584.910156 C 248.554688 582.847656 248.296875 580.777344 248.09375 578.699219 C 247.890625 576.625 247.734375 574.542969 247.632812 572.460938 C 247.53125 570.375 247.480469 568.289062 247.480469 566.203125 C 247.480469 564.117188 247.53125 562.03125 247.632812 559.949219 C 247.734375 557.863281 247.890625 555.785156 248.09375 553.707031 C 248.296875 551.632812 248.554688 549.5625 248.859375 547.496094 C 249.164062 545.433594 249.523438 543.378906 249.929688 541.332031 C 250.335938 539.285156 250.792969 537.25 251.300781 535.226562 C 251.808594 533.203125 252.363281 531.191406 252.96875 529.195312 C 253.574219 527.199219 254.230469 525.21875 254.933594 523.253906 C 255.636719 521.289062 256.386719 519.34375 257.183594 517.414062 C 257.984375 515.488281 258.828125 513.582031 259.71875 511.695312 C 260.613281 509.808594 261.550781 507.945312 262.535156 506.105469 C 263.515625 504.265625 264.546875 502.449219 265.617188 500.660156 C 266.691406 498.871094 267.804688 497.109375 268.964844 495.375 C 270.125 493.640625 271.324219 491.933594 272.570312 490.257812 C 273.8125 488.582031 275.09375 486.9375 276.417969 485.324219 C 277.742188 483.710938 279.105469 482.132812 280.503906 480.585938 C 281.90625 479.042969 283.34375 477.53125 284.820312 476.054688 C 286.296875 474.578125 287.804688 473.140625 289.351562 471.742188 C 290.898438 470.339844 292.476562 468.976562 294.089844 467.652344 C 295.703125 466.328125 297.347656 465.046875 299.023438 463.804688 C 300.699219 462.558594 302.40625 461.359375 304.140625 460.199219 C 305.875 459.039062 307.636719 457.925781 309.425781 456.851562 C 311.214844 455.78125 313.03125 454.75 314.871094 453.769531 C 316.710938 452.785156 318.574219 451.847656 320.460938 450.953125 C 322.347656 450.0625 324.253906 449.21875 326.179688 448.417969 C 328.109375 447.621094 330.054688 446.871094 332.019531 446.167969 C 333.984375 445.464844 335.964844 444.808594 337.960938 444.203125 C 339.957031 443.597656 341.96875 443.042969 343.992188 442.535156 C 346.015625 442.027344 348.050781 441.570312 350.097656 441.164062 C 352.144531 440.757812 354.199219 440.402344 356.261719 440.09375 C 358.328125 439.789062 360.398438 439.53125 362.472656 439.328125 C 364.550781 439.125 366.628906 438.96875 368.714844 438.867188 C 370.796875 438.765625 372.882812 438.714844 374.96875 438.714844 C 377.054688 438.714844 379.140625 438.765625 381.226562 438.867188 C 383.308594 438.96875 385.390625 439.125 387.464844 439.328125 C 389.542969 439.53125 391.613281 439.789062 393.675781 440.09375 C 395.738281 440.402344 397.796875 440.757812 399.839844 441.164062 C 401.886719 441.570312 403.921875 442.027344 405.945312 442.535156 C 407.972656 443.042969 409.980469 443.597656 411.976562 444.203125 C 413.972656 444.808594 415.953125 445.464844 417.917969 446.167969 C 419.882812 446.871094 421.828125 447.621094 423.757812 448.417969 C 425.683594 449.21875 427.59375 450.0625 429.476562 450.953125 C 431.363281 451.847656 433.226562 452.785156 435.066406 453.769531 C 436.90625 454.75 438.722656 455.78125 440.511719 456.851562 C 442.300781 457.925781 444.0625 459.039062 445.800781 460.199219 C 447.535156 461.359375 449.238281 462.558594 450.914062 463.804688 C 452.589844 465.046875 454.234375 466.328125 455.847656 467.652344 C 457.460938 468.976562 459.039062 470.339844 460.585938 471.742188 C 462.132812 473.140625 463.644531 474.578125 465.117188 476.054688 C 466.59375 477.53125 468.03125 479.042969 469.433594 480.585938 C 470.835938 482.132812 472.195312 483.710938 473.519531 485.324219 C 474.84375 486.9375 476.128906 488.582031 477.371094 490.257812 C 478.613281 491.933594 479.8125 493.640625 480.972656 495.375 C 482.132812 497.109375 483.25 498.871094 484.320312 500.660156 C 485.394531 502.449219 486.421875 504.265625 487.40625 506.105469 C 488.390625 507.945312 489.328125 509.808594 490.21875 511.695312 C 491.109375 513.582031 491.957031 515.488281 492.753906 517.414062 C 493.554688 519.34375 494.304688 521.289062 495.007812 523.253906 C 495.710938 525.21875 496.363281 527.199219 496.96875 529.195312 C 497.574219 531.191406 498.132812 533.203125 498.636719 535.226562 C 499.144531 537.25 499.601562 539.285156 500.007812 541.332031 C 500.417969 543.378906 500.773438 545.433594 501.078125 547.496094 C 501.386719 549.5625 501.640625 551.632812 501.84375 553.707031 C 502.050781 555.785156 502.203125 557.863281 502.304688 559.949219 C 502.40625 562.03125 502.460938 564.117188 502.460938 566.203125 Z M 502.460938 566.203125 "/><path style=" stroke:none;fill-rule:evenodd;fill:#ffffff;fill-opacity:1;" d="M 249.417969 588.386719 L 374.984375 438.71875 L 186.199219 276.164062 Z M 249.417969 588.386719 "/></g></svg>