<svg xmlns="http://www.w3.org/2000/svg" xmlns:xlink="http://www.w3.org/1999/xlink" width="1000" zoomAndPan="magnify" viewBox="0 0 750 231.75" height="309" preserveAspectRatio="xMidYMid meet" version="1.2"><defs><clipPath id="f25d8964cc"><path d="M 53.789062 34.292969 L 151.183594 34.292969 L 151.183594 132 L 53.789062 132 Z M 53.789062 34.292969 "/></clipPath><clipPath id="9ff59f01d5"><path d="M 70 131 L 135 131 L 135 196.867188 L 70 196.867188 Z M 70 131 "/></clipPath></defs><g id="edb610c4dd"><g style="fill:#000000;fill-opacity:0.302;"><g transform="translate(190.562152, 148.247878)"><path style="stroke:none" d="M 29.078125 -52.734375 C 33.753906 -52.734375 37.8125 -51.953125 41.25 -50.390625 C 44.6875 -48.835938 47.332031 -46.628906 49.1875 -43.765625 C 51.050781 -40.910156 51.984375 -37.523438 51.984375 -33.609375 C 51.984375 -29.734375 51.050781 -26.351562 49.1875 -23.46875 C 47.332031 -20.582031 44.6875 -18.375 41.25 -16.84375 C 37.8125 -15.3125 33.753906 -14.546875 29.078125 -14.546875 L 18.453125 -14.546875 L 18.453125 0 L 6.25 0 L 6.25 -52.734375 Z M 28.40625 -24.484375 C 32.070312 -24.484375 34.859375 -25.273438 36.765625 -26.859375 C 38.671875 -28.441406 39.625 -30.691406 39.625 -33.609375 C 39.625 -36.566406 38.671875 -38.835938 36.765625 -40.421875 C 34.859375 -42.003906 32.070312 -42.796875 28.40625 -42.796875 L 18.453125 -42.796875 L 18.453125 -24.484375 Z M 28.40625 -24.484375 "/></g></g><g style="fill:#000000;fill-opacity:0.302;"><g transform="translate(244.886047, 148.247878)"><path style="stroke:none" d="M 24.71875 0.609375 C 20.445312 0.609375 16.613281 -0.28125 13.21875 -2.0625 C 9.832031 -3.851562 7.179688 -6.328125 5.265625 -9.484375 C 3.359375 -12.648438 2.40625 -16.242188 2.40625 -20.265625 C 2.40625 -24.285156 3.359375 -27.875 5.265625 -31.03125 C 7.179688 -34.195312 9.832031 -36.671875 13.21875 -38.453125 C 16.613281 -40.242188 20.445312 -41.140625 24.71875 -41.140625 C 28.976562 -41.140625 32.789062 -40.242188 36.15625 -38.453125 C 39.53125 -36.671875 42.171875 -34.195312 44.078125 -31.03125 C 45.984375 -27.875 46.9375 -24.285156 46.9375 -20.265625 C 46.9375 -16.242188 45.984375 -12.648438 44.078125 -9.484375 C 42.171875 -6.328125 39.53125 -3.851562 36.15625 -2.0625 C 32.789062 -0.28125 28.976562 0.609375 24.71875 0.609375 Z M 24.71875 -9.046875 C 27.726562 -9.046875 30.195312 -10.0625 32.125 -12.09375 C 34.0625 -14.125 35.03125 -16.847656 35.03125 -20.265625 C 35.03125 -23.679688 34.0625 -26.40625 32.125 -28.4375 C 30.195312 -30.476562 27.726562 -31.5 24.71875 -31.5 C 21.695312 -31.5 19.207031 -30.476562 17.25 -28.4375 C 15.289062 -26.40625 14.3125 -23.679688 14.3125 -20.265625 C 14.3125 -16.847656 15.289062 -14.125 17.25 -12.09375 C 19.207031 -10.0625 21.695312 -9.046875 24.71875 -9.046875 Z M 24.71875 -9.046875 "/></g></g><g style="fill:#000000;fill-opacity:0.302;"><g transform="translate(294.237169, 148.247878)"><path style="stroke:none" d="M 5.421875 -40.53125 L 17.171875 -40.53125 L 17.171875 0 L 5.421875 0 Z M 11.296875 -46.1875 C 9.140625 -46.1875 7.382812 -46.8125 6.03125 -48.0625 C 4.675781 -49.320312 4 -50.878906 4 -52.734375 C 4 -54.597656 4.675781 -56.15625 6.03125 -57.40625 C 7.382812 -58.664062 9.140625 -59.296875 11.296875 -59.296875 C 13.460938 -59.296875 15.222656 -58.691406 16.578125 -57.484375 C 17.929688 -56.273438 18.609375 -54.769531 18.609375 -52.96875 C 18.609375 -51.007812 17.929688 -49.390625 16.578125 -48.109375 C 15.222656 -46.828125 13.460938 -46.1875 11.296875 -46.1875 Z M 11.296875 -46.1875 "/></g></g><g style="fill:#000000;fill-opacity:0.302;"><g transform="translate(316.916079, 148.247878)"><path style="stroke:none" d="M 30.0625 -41.140625 C 35.082031 -41.140625 39.132812 -39.628906 42.21875 -36.609375 C 45.3125 -33.597656 46.859375 -29.128906 46.859375 -23.203125 L 46.859375 0 L 35.109375 0 L 35.109375 -21.390625 C 35.109375 -24.609375 34.40625 -27.007812 33 -28.59375 C 31.59375 -30.175781 29.554688 -30.96875 26.890625 -30.96875 C 23.929688 -30.96875 21.570312 -30.050781 19.8125 -28.21875 C 18.050781 -26.382812 17.171875 -23.660156 17.171875 -20.046875 L 17.171875 0 L 5.421875 0 L 5.421875 -40.53125 L 16.65625 -40.53125 L 16.65625 -35.78125 C 18.207031 -37.488281 20.140625 -38.804688 22.453125 -39.734375 C 24.765625 -40.671875 27.300781 -41.140625 30.0625 -41.140625 Z M 30.0625 -41.140625 "/></g></g><g style="fill:#000000;fill-opacity:0.302;"><g transform="translate(368.97962, 148.247878)"><path style="stroke:none" d="M 31.5625 -1.953125 C 30.414062 -1.097656 29 -0.457031 27.3125 -0.03125 C 25.625 0.394531 23.851562 0.609375 22 0.609375 C 17.175781 0.609375 13.445312 -0.617188 10.8125 -3.078125 C 8.175781 -5.546875 6.859375 -9.164062 6.859375 -13.9375 L 6.859375 -30.59375 L 0.609375 -30.59375 L 0.609375 -39.625 L 6.859375 -39.625 L 6.859375 -49.5 L 18.609375 -49.5 L 18.609375 -39.625 L 28.703125 -39.625 L 28.703125 -30.59375 L 18.609375 -30.59375 L 18.609375 -14.09375 C 18.609375 -12.382812 19.046875 -11.0625 19.921875 -10.125 C 20.804688 -9.195312 22.050781 -8.734375 23.65625 -8.734375 C 25.519531 -8.734375 27.101562 -9.238281 28.40625 -10.25 Z M 31.5625 -1.953125 "/></g></g><g style="fill:#000000;fill-opacity:0.302;"><g transform="translate(401.754803, 148.247878)"><path style="stroke:none" d=""/></g></g><g style="fill:#000000;fill-opacity:0.302;"><g transform="translate(423.077498, 148.247878)"><path style="stroke:none" d="M 42.34375 -9.953125 L 42.34375 0 L 2.484375 0 L 2.484375 -7.90625 L 22.828125 -27.125 C 24.984375 -29.1875 26.4375 -30.957031 27.1875 -32.4375 C 27.945312 -33.914062 28.328125 -35.382812 28.328125 -36.84375 C 28.328125 -38.945312 27.609375 -40.5625 26.171875 -41.6875 C 24.742188 -42.820312 22.648438 -43.390625 19.890625 -43.390625 C 17.578125 -43.390625 15.488281 -42.953125 13.625 -42.078125 C 11.769531 -41.203125 10.21875 -39.882812 8.96875 -38.125 L 0.078125 -43.84375 C 2.140625 -46.914062 4.976562 -49.316406 8.59375 -51.046875 C 12.207031 -52.773438 16.347656 -53.640625 21.015625 -53.640625 C 24.929688 -53.640625 28.359375 -53 31.296875 -51.71875 C 34.242188 -50.4375 36.53125 -48.628906 38.15625 -46.296875 C 39.789062 -43.960938 40.609375 -41.210938 40.609375 -38.046875 C 40.609375 -35.179688 40.003906 -32.492188 38.796875 -29.984375 C 37.597656 -27.472656 35.265625 -24.609375 31.796875 -21.390625 L 19.671875 -9.953125 Z M 42.34375 -9.953125 "/></g></g><g style="fill:#000000;fill-opacity:0.302;"><g transform="translate(467.531186, 148.247878)"><path style="stroke:none" d=""/></g></g><g style="fill:#000000;fill-opacity:0.302;"><g transform="translate(488.853881, 148.247878)"><path style="stroke:none" d="M 29.078125 -52.734375 C 33.753906 -52.734375 37.8125 -51.953125 41.25 -50.390625 C 44.6875 -48.835938 47.332031 -46.628906 49.1875 -43.765625 C 51.050781 -40.910156 51.984375 -37.523438 51.984375 -33.609375 C 51.984375 -29.734375 51.050781 -26.351562 49.1875 -23.46875 C 47.332031 -20.582031 44.6875 -18.375 41.25 -16.84375 C 37.8125 -15.3125 33.753906 -14.546875 29.078125 -14.546875 L 18.453125 -14.546875 L 18.453125 0 L 6.25 0 L 6.25 -52.734375 Z M 28.40625 -24.484375 C 32.070312 -24.484375 34.859375 -25.273438 36.765625 -26.859375 C 38.671875 -28.441406 39.625 -30.691406 39.625 -33.609375 C 39.625 -36.566406 38.671875 -38.835938 36.765625 -40.421875 C 34.859375 -42.003906 32.070312 -42.796875 28.40625 -42.796875 L 18.453125 -42.796875 L 18.453125 -24.484375 Z M 28.40625 -24.484375 "/></g></g><g style="fill:#000000;fill-opacity:0.302;"><g transform="translate(543.177776, 148.247878)"><path style="stroke:none" d="M 24.71875 0.609375 C 20.445312 0.609375 16.613281 -0.28125 13.21875 -2.0625 C 9.832031 -3.851562 7.179688 -6.328125 5.265625 -9.484375 C 3.359375 -12.648438 2.40625 -16.242188 2.40625 -20.265625 C 2.40625 -24.285156 3.359375 -27.875 5.265625 -31.03125 C 7.179688 -34.195312 9.832031 -36.671875 13.21875 -38.453125 C 16.613281 -40.242188 20.445312 -41.140625 24.71875 -41.140625 C 28.976562 -41.140625 32.789062 -40.242188 36.15625 -38.453125 C 39.53125 -36.671875 42.171875 -34.195312 44.078125 -31.03125 C 45.984375 -27.875 46.9375 -24.285156 46.9375 -20.265625 C 46.9375 -16.242188 45.984375 -12.648438 44.078125 -9.484375 C 42.171875 -6.328125 39.53125 -3.851562 36.15625 -2.0625 C 32.789062 -0.28125 28.976562 0.609375 24.71875 0.609375 Z M 24.71875 -9.046875 C 27.726562 -9.046875 30.195312 -10.0625 32.125 -12.09375 C 34.0625 -14.125 35.03125 -16.847656 35.03125 -20.265625 C 35.03125 -23.679688 34.0625 -26.40625 32.125 -28.4375 C 30.195312 -30.476562 27.726562 -31.5 24.71875 -31.5 C 21.695312 -31.5 19.207031 -30.476562 17.25 -28.4375 C 15.289062 -26.40625 14.3125 -23.679688 14.3125 -20.265625 C 14.3125 -16.847656 15.289062 -14.125 17.25 -12.09375 C 19.207031 -10.0625 21.695312 -9.046875 24.71875 -9.046875 Z M 24.71875 -9.046875 "/></g></g><g style="fill:#000000;fill-opacity:0.302;"><g transform="translate(592.528909, 148.247878)"><path style="stroke:none" d="M 5.421875 -40.53125 L 17.171875 -40.53125 L 17.171875 0 L 5.421875 0 Z M 11.296875 -46.1875 C 9.140625 -46.1875 7.382812 -46.8125 6.03125 -48.0625 C 4.675781 -49.320312 4 -50.878906 4 -52.734375 C 4 -54.597656 4.675781 -56.15625 6.03125 -57.40625 C 7.382812 -58.664062 9.140625 -59.296875 11.296875 -59.296875 C 13.460938 -59.296875 15.222656 -58.691406 16.578125 -57.484375 C 17.929688 -56.273438 18.609375 -54.769531 18.609375 -52.96875 C 18.609375 -51.007812 17.929688 -49.390625 16.578125 -48.109375 C 15.222656 -46.828125 13.460938 -46.1875 11.296875 -46.1875 Z M 11.296875 -46.1875 "/></g></g><g style="fill:#000000;fill-opacity:0.302;"><g transform="translate(615.207828, 148.247878)"><path style="stroke:none" d="M 30.0625 -41.140625 C 35.082031 -41.140625 39.132812 -39.628906 42.21875 -36.609375 C 45.3125 -33.597656 46.859375 -29.128906 46.859375 -23.203125 L 46.859375 0 L 35.109375 0 L 35.109375 -21.390625 C 35.109375 -24.609375 34.40625 -27.007812 33 -28.59375 C 31.59375 -30.175781 29.554688 -30.96875 26.890625 -30.96875 C 23.929688 -30.96875 21.570312 -30.050781 19.8125 -28.21875 C 18.050781 -26.382812 17.171875 -23.660156 17.171875 -20.046875 L 17.171875 0 L 5.421875 0 L 5.421875 -40.53125 L 16.65625 -40.53125 L 16.65625 -35.78125 C 18.207031 -37.488281 20.140625 -38.804688 22.453125 -39.734375 C 24.765625 -40.671875 27.300781 -41.140625 30.0625 -41.140625 Z M 30.0625 -41.140625 "/></g></g><g style="fill:#000000;fill-opacity:0.302;"><g transform="translate(667.271369, 148.247878)"><path style="stroke:none" d="M 31.5625 -1.953125 C 30.414062 -1.097656 29 -0.457031 27.3125 -0.03125 C 25.625 0.394531 23.851562 0.609375 22 0.609375 C 17.175781 0.609375 13.445312 -0.617188 10.8125 -3.078125 C 8.175781 -5.546875 6.859375 -9.164062 6.859375 -13.9375 L 6.859375 -30.59375 L 0.609375 -30.59375 L 0.609375 -39.625 L 6.859375 -39.625 L 6.859375 -49.5 L 18.609375 -49.5 L 18.609375 -39.625 L 28.703125 -39.625 L 28.703125 -30.59375 L 18.609375 -30.59375 L 18.609375 -14.09375 C 18.609375 -12.382812 19.046875 -11.0625 19.921875 -10.125 C 20.804688 -9.195312 22.050781 -8.734375 23.65625 -8.734375 C 25.519531 -8.734375 27.101562 -9.238281 28.40625 -10.25 Z M 31.5625 -1.953125 "/></g></g><g style="fill:#ffffff;fill-opacity:1;"><g transform="translate(186.726642, 142.770212)"><path style="stroke:none" d="M 29.078125 -52.734375 C 33.753906 -52.734375 37.8125 -51.953125 41.25 -50.390625 C 44.6875 -48.835938 47.332031 -46.628906 49.1875 -43.765625 C 51.050781 -40.910156 51.984375 -37.523438 51.984375 -33.609375 C 51.984375 -29.734375 51.050781 -26.351562 49.1875 -23.46875 C 47.332031 -20.582031 44.6875 -18.375 41.25 -16.84375 C 37.8125 -15.3125 33.753906 -14.546875 29.078125 -14.546875 L 18.453125 -14.546875 L 18.453125 0 L 6.25 0 L 6.25 -52.734375 Z M 28.40625 -24.484375 C 32.070312 -24.484375 34.859375 -25.273438 36.765625 -26.859375 C 38.671875 -28.441406 39.625 -30.691406 39.625 -33.609375 C 39.625 -36.566406 38.671875 -38.835938 36.765625 -40.421875 C 34.859375 -42.003906 32.070312 -42.796875 28.40625 -42.796875 L 18.453125 -42.796875 L 18.453125 -24.484375 Z M 28.40625 -24.484375 "/></g></g><g style="fill:#ffffff;fill-opacity:1;"><g transform="translate(241.050538, 142.770212)"><path style="stroke:none" d="M 24.71875 0.609375 C 20.445312 0.609375 16.613281 -0.28125 13.21875 -2.0625 C 9.832031 -3.851562 7.179688 -6.328125 5.265625 -9.484375 C 3.359375 -12.648438 2.40625 -16.242188 2.40625 -20.265625 C 2.40625 -24.285156 3.359375 -27.875 5.265625 -31.03125 C 7.179688 -34.195312 9.832031 -36.671875 13.21875 -38.453125 C 16.613281 -40.242188 20.445312 -41.140625 24.71875 -41.140625 C 28.976562 -41.140625 32.789062 -40.242188 36.15625 -38.453125 C 39.53125 -36.671875 42.171875 -34.195312 44.078125 -31.03125 C 45.984375 -27.875 46.9375 -24.285156 46.9375 -20.265625 C 46.9375 -16.242188 45.984375 -12.648438 44.078125 -9.484375 C 42.171875 -6.328125 39.53125 -3.851562 36.15625 -2.0625 C 32.789062 -0.28125 28.976562 0.609375 24.71875 0.609375 Z M 24.71875 -9.046875 C 27.726562 -9.046875 30.195312 -10.0625 32.125 -12.09375 C 34.0625 -14.125 35.03125 -16.847656 35.03125 -20.265625 C 35.03125 -23.679688 34.0625 -26.40625 32.125 -28.4375 C 30.195312 -30.476562 27.726562 -31.5 24.71875 -31.5 C 21.695312 -31.5 19.207031 -30.476562 17.25 -28.4375 C 15.289062 -26.40625 14.3125 -23.679688 14.3125 -20.265625 C 14.3125 -16.847656 15.289062 -14.125 17.25 -12.09375 C 19.207031 -10.0625 21.695312 -9.046875 24.71875 -9.046875 Z M 24.71875 -9.046875 "/></g></g><g style="fill:#ffffff;fill-opacity:1;"><g transform="translate(290.40166, 142.770212)"><path style="stroke:none" d="M 5.421875 -40.53125 L 17.171875 -40.53125 L 17.171875 0 L 5.421875 0 Z M 11.296875 -46.1875 C 9.140625 -46.1875 7.382812 -46.8125 6.03125 -48.0625 C 4.675781 -49.320312 4 -50.878906 4 -52.734375 C 4 -54.597656 4.675781 -56.15625 6.03125 -57.40625 C 7.382812 -58.664062 9.140625 -59.296875 11.296875 -59.296875 C 13.460938 -59.296875 15.222656 -58.691406 16.578125 -57.484375 C 17.929688 -56.273438 18.609375 -54.769531 18.609375 -52.96875 C 18.609375 -51.007812 17.929688 -49.390625 16.578125 -48.109375 C 15.222656 -46.828125 13.460938 -46.1875 11.296875 -46.1875 Z M 11.296875 -46.1875 "/></g></g><g style="fill:#ffffff;fill-opacity:1;"><g transform="translate(313.080569, 142.770212)"><path style="stroke:none" d="M 30.0625 -41.140625 C 35.082031 -41.140625 39.132812 -39.628906 42.21875 -36.609375 C 45.3125 -33.597656 46.859375 -29.128906 46.859375 -23.203125 L 46.859375 0 L 35.109375 0 L 35.109375 -21.390625 C 35.109375 -24.609375 34.40625 -27.007812 33 -28.59375 C 31.59375 -30.175781 29.554688 -30.96875 26.890625 -30.96875 C 23.929688 -30.96875 21.570312 -30.050781 19.8125 -28.21875 C 18.050781 -26.382812 17.171875 -23.660156 17.171875 -20.046875 L 17.171875 0 L 5.421875 0 L 5.421875 -40.53125 L 16.65625 -40.53125 L 16.65625 -35.78125 C 18.207031 -37.488281 20.140625 -38.804688 22.453125 -39.734375 C 24.765625 -40.671875 27.300781 -41.140625 30.0625 -41.140625 Z M 30.0625 -41.140625 "/></g></g><g style="fill:#ffffff;fill-opacity:1;"><g transform="translate(365.14411, 142.770212)"><path style="stroke:none" d="M 31.5625 -1.953125 C 30.414062 -1.097656 29 -0.457031 27.3125 -0.03125 C 25.625 0.394531 23.851562 0.609375 22 0.609375 C 17.175781 0.609375 13.445312 -0.617188 10.8125 -3.078125 C 8.175781 -5.546875 6.859375 -9.164062 6.859375 -13.9375 L 6.859375 -30.59375 L 0.609375 -30.59375 L 0.609375 -39.625 L 6.859375 -39.625 L 6.859375 -49.5 L 18.609375 -49.5 L 18.609375 -39.625 L 28.703125 -39.625 L 28.703125 -30.59375 L 18.609375 -30.59375 L 18.609375 -14.09375 C 18.609375 -12.382812 19.046875 -11.0625 19.921875 -10.125 C 20.804688 -9.195312 22.050781 -8.734375 23.65625 -8.734375 C 25.519531 -8.734375 27.101562 -9.238281 28.40625 -10.25 Z M 31.5625 -1.953125 "/></g></g><g style="fill:#ffffff;fill-opacity:1;"><g transform="translate(397.919294, 142.770212)"><path style="stroke:none" d=""/></g></g><g style="fill:#ffffff;fill-opacity:1;"><g transform="translate(419.241988, 142.770212)"><path style="stroke:none" d="M 42.34375 -9.953125 L 42.34375 0 L 2.484375 0 L 2.484375 -7.90625 L 22.828125 -27.125 C 24.984375 -29.1875 26.4375 -30.957031 27.1875 -32.4375 C 27.945312 -33.914062 28.328125 -35.382812 28.328125 -36.84375 C 28.328125 -38.945312 27.609375 -40.5625 26.171875 -41.6875 C 24.742188 -42.820312 22.648438 -43.390625 19.890625 -43.390625 C 17.578125 -43.390625 15.488281 -42.953125 13.625 -42.078125 C 11.769531 -41.203125 10.21875 -39.882812 8.96875 -38.125 L 0.078125 -43.84375 C 2.140625 -46.914062 4.976562 -49.316406 8.59375 -51.046875 C 12.207031 -52.773438 16.347656 -53.640625 21.015625 -53.640625 C 24.929688 -53.640625 28.359375 -53 31.296875 -51.71875 C 34.242188 -50.4375 36.53125 -48.628906 38.15625 -46.296875 C 39.789062 -43.960938 40.609375 -41.210938 40.609375 -38.046875 C 40.609375 -35.179688 40.003906 -32.492188 38.796875 -29.984375 C 37.597656 -27.472656 35.265625 -24.609375 31.796875 -21.390625 L 19.671875 -9.953125 Z M 42.34375 -9.953125 "/></g></g><g style="fill:#ffffff;fill-opacity:1;"><g transform="translate(463.695677, 142.770212)"><path style="stroke:none" d=""/></g></g><g style="fill:#ffffff;fill-opacity:1;"><g transform="translate(485.018371, 142.770212)"><path style="stroke:none" d="M 29.078125 -52.734375 C 33.753906 -52.734375 37.8125 -51.953125 41.25 -50.390625 C 44.6875 -48.835938 47.332031 -46.628906 49.1875 -43.765625 C 51.050781 -40.910156 51.984375 -37.523438 51.984375 -33.609375 C 51.984375 -29.734375 51.050781 -26.351562 49.1875 -23.46875 C 47.332031 -20.582031 44.6875 -18.375 41.25 -16.84375 C 37.8125 -15.3125 33.753906 -14.546875 29.078125 -14.546875 L 18.453125 -14.546875 L 18.453125 0 L 6.25 0 L 6.25 -52.734375 Z M 28.40625 -24.484375 C 32.070312 -24.484375 34.859375 -25.273438 36.765625 -26.859375 C 38.671875 -28.441406 39.625 -30.691406 39.625 -33.609375 C 39.625 -36.566406 38.671875 -38.835938 36.765625 -40.421875 C 34.859375 -42.003906 32.070312 -42.796875 28.40625 -42.796875 L 18.453125 -42.796875 L 18.453125 -24.484375 Z M 28.40625 -24.484375 "/></g></g><g style="fill:#ffffff;fill-opacity:1;"><g transform="translate(539.342267, 142.770212)"><path style="stroke:none" d="M 24.71875 0.609375 C 20.445312 0.609375 16.613281 -0.28125 13.21875 -2.0625 C 9.832031 -3.851562 7.179688 -6.328125 5.265625 -9.484375 C 3.359375 -12.648438 2.40625 -16.242188 2.40625 -20.265625 C 2.40625 -24.285156 3.359375 -27.875 5.265625 -31.03125 C 7.179688 -34.195312 9.832031 -36.671875 13.21875 -38.453125 C 16.613281 -40.242188 20.445312 -41.140625 24.71875 -41.140625 C 28.976562 -41.140625 32.789062 -40.242188 36.15625 -38.453125 C 39.53125 -36.671875 42.171875 -34.195312 44.078125 -31.03125 C 45.984375 -27.875 46.9375 -24.285156 46.9375 -20.265625 C 46.9375 -16.242188 45.984375 -12.648438 44.078125 -9.484375 C 42.171875 -6.328125 39.53125 -3.851562 36.15625 -2.0625 C 32.789062 -0.28125 28.976562 0.609375 24.71875 0.609375 Z M 24.71875 -9.046875 C 27.726562 -9.046875 30.195312 -10.0625 32.125 -12.09375 C 34.0625 -14.125 35.03125 -16.847656 35.03125 -20.265625 C 35.03125 -23.679688 34.0625 -26.40625 32.125 -28.4375 C 30.195312 -30.476562 27.726562 -31.5 24.71875 -31.5 C 21.695312 -31.5 19.207031 -30.476562 17.25 -28.4375 C 15.289062 -26.40625 14.3125 -23.679688 14.3125 -20.265625 C 14.3125 -16.847656 15.289062 -14.125 17.25 -12.09375 C 19.207031 -10.0625 21.695312 -9.046875 24.71875 -9.046875 Z M 24.71875 -9.046875 "/></g></g><g style="fill:#ffffff;fill-opacity:1;"><g transform="translate(588.693399, 142.770212)"><path style="stroke:none" d="M 5.421875 -40.53125 L 17.171875 -40.53125 L 17.171875 0 L 5.421875 0 Z M 11.296875 -46.1875 C 9.140625 -46.1875 7.382812 -46.8125 6.03125 -48.0625 C 4.675781 -49.320312 4 -50.878906 4 -52.734375 C 4 -54.597656 4.675781 -56.15625 6.03125 -57.40625 C 7.382812 -58.664062 9.140625 -59.296875 11.296875 -59.296875 C 13.460938 -59.296875 15.222656 -58.691406 16.578125 -57.484375 C 17.929688 -56.273438 18.609375 -54.769531 18.609375 -52.96875 C 18.609375 -51.007812 17.929688 -49.390625 16.578125 -48.109375 C 15.222656 -46.828125 13.460938 -46.1875 11.296875 -46.1875 Z M 11.296875 -46.1875 "/></g></g><g style="fill:#ffffff;fill-opacity:1;"><g transform="translate(611.372319, 142.770212)"><path style="stroke:none" d="M 30.0625 -41.140625 C 35.082031 -41.140625 39.132812 -39.628906 42.21875 -36.609375 C 45.3125 -33.597656 46.859375 -29.128906 46.859375 -23.203125 L 46.859375 0 L 35.109375 0 L 35.109375 -21.390625 C 35.109375 -24.609375 34.40625 -27.007812 33 -28.59375 C 31.59375 -30.175781 29.554688 -30.96875 26.890625 -30.96875 C 23.929688 -30.96875 21.570312 -30.050781 19.8125 -28.21875 C 18.050781 -26.382812 17.171875 -23.660156 17.171875 -20.046875 L 17.171875 0 L 5.421875 0 L 5.421875 -40.53125 L 16.65625 -40.53125 L 16.65625 -35.78125 C 18.207031 -37.488281 20.140625 -38.804688 22.453125 -39.734375 C 24.765625 -40.671875 27.300781 -41.140625 30.0625 -41.140625 Z M 30.0625 -41.140625 "/></g></g><g style="fill:#ffffff;fill-opacity:1;"><g transform="translate(663.43586, 142.770212)"><path style="stroke:none" d="M 31.5625 -1.953125 C 30.414062 -1.097656 29 -0.457031 27.3125 -0.03125 C 25.625 0.394531 23.851562 0.609375 22 0.609375 C 17.175781 0.609375 13.445312 -0.617188 10.8125 -3.078125 C 8.175781 -5.546875 6.859375 -9.164062 6.859375 -13.9375 L 6.859375 -30.59375 L 0.609375 -30.59375 L 0.609375 -39.625 L 6.859375 -39.625 L 6.859375 -49.5 L 18.609375 -49.5 L 18.609375 -39.625 L 28.703125 -39.625 L 28.703125 -30.59375 L 18.609375 -30.59375 L 18.609375 -14.09375 C 18.609375 -12.382812 19.046875 -11.0625 19.921875 -10.125 C 20.804688 -9.195312 22.050781 -8.734375 23.65625 -8.734375 C 25.519531 -8.734375 27.101562 -9.238281 28.40625 -10.25 Z M 31.5625 -1.953125 "/></g></g><g clip-rule="nonzero" clip-path="url(#f25d8964cc)"><path style=" stroke:none;fill-rule:evenodd;fill:#ffffff;fill-opacity:1;" d="M 102.484375 34.292969 C 129.359375 34.292969 151.179688 56.144531 151.179688 83.0625 C 151.179688 109.976562 129.359375 131.828125 102.484375 131.828125 C 75.609375 131.828125 53.792969 109.976562 53.792969 83.0625 C 53.792969 56.144531 75.609375 34.292969 102.484375 34.292969 Z M 102.484375 66.804688 C 93.527344 66.804688 86.253906 74.089844 86.253906 83.0625 C 86.253906 92.03125 93.527344 99.316406 102.484375 99.316406 C 111.445312 99.316406 118.71875 92.03125 118.71875 83.0625 C 118.71875 74.089844 111.445312 66.804688 102.484375 66.804688 Z M 102.484375 66.804688 "/></g><g clip-rule="nonzero" clip-path="url(#9ff59f01d5)"><path style=" stroke:none;fill-rule:nonzero;fill:#ffffff;fill-opacity:1;" d="M 134.949219 164.339844 C 134.949219 165.40625 134.898438 166.46875 134.792969 167.527344 C 134.6875 168.585938 134.53125 169.636719 134.324219 170.683594 C 134.117188 171.726562 133.859375 172.757812 133.550781 173.777344 C 133.242188 174.796875 132.882812 175.796875 132.476562 176.78125 C 132.070312 177.765625 131.617188 178.726562 131.117188 179.667969 C 130.613281 180.605469 130.070312 181.515625 129.476562 182.402344 C 128.886719 183.289062 128.253906 184.140625 127.578125 184.964844 C 126.90625 185.789062 126.191406 186.578125 125.441406 187.328125 C 124.6875 188.082031 123.902344 188.796875 123.078125 189.472656 C 122.257812 190.148438 121.40625 190.78125 120.519531 191.371094 C 119.636719 191.964844 118.726562 192.511719 117.789062 193.011719 C 116.851562 193.515625 115.890625 193.96875 114.910156 194.378906 C 113.925781 194.785156 112.925781 195.144531 111.910156 195.453125 C 110.890625 195.761719 109.863281 196.019531 108.820312 196.226562 C 107.777344 196.433594 106.726562 196.589844 105.667969 196.695312 C 104.609375 196.800781 103.550781 196.851562 102.484375 196.851562 C 101.421875 196.851562 100.363281 196.800781 99.304688 196.695312 C 98.246094 196.589844 97.195312 196.433594 96.152344 196.226562 C 95.109375 196.019531 94.078125 195.761719 93.0625 195.453125 C 92.046875 195.144531 91.046875 194.785156 90.0625 194.378906 C 89.082031 193.96875 88.121094 193.515625 87.183594 193.011719 C 86.246094 192.511719 85.335938 191.964844 84.449219 191.371094 C 83.566406 190.78125 82.714844 190.148438 81.890625 189.472656 C 81.070312 188.796875 80.28125 188.082031 79.53125 187.328125 C 78.78125 186.578125 78.066406 185.789062 77.390625 184.964844 C 76.71875 184.140625 76.085938 183.289062 75.496094 182.402344 C 74.902344 181.515625 74.359375 180.605469 73.855469 179.667969 C 73.355469 178.726562 72.902344 177.765625 72.496094 176.78125 C 72.085938 175.796875 71.730469 174.796875 71.421875 173.777344 C 71.113281 172.757812 70.855469 171.726562 70.648438 170.683594 C 70.441406 169.636719 70.285156 168.585938 70.179688 167.527344 C 70.074219 166.46875 70.023438 165.40625 70.023438 164.339844 C 70.023438 163.273438 70.074219 162.214844 70.179688 161.152344 C 70.285156 160.09375 70.441406 159.042969 70.648438 157.996094 C 70.855469 156.953125 71.113281 155.921875 71.421875 154.902344 C 71.730469 153.882812 72.085938 152.882812 72.496094 151.898438 C 72.902344 150.914062 73.355469 149.953125 73.855469 149.015625 C 74.359375 148.074219 74.902344 147.164062 75.496094 146.277344 C 76.085938 145.390625 76.71875 144.539062 77.390625 143.714844 C 78.066406 142.890625 78.78125 142.105469 79.53125 141.351562 C 80.28125 140.597656 81.070312 139.882812 81.890625 139.207031 C 82.714844 138.53125 83.566406 137.898438 84.449219 137.308594 C 85.335938 136.714844 86.246094 136.167969 87.183594 135.667969 C 88.121094 135.164062 89.082031 134.710938 90.0625 134.304688 C 91.046875 133.894531 92.046875 133.539062 93.0625 133.226562 C 94.078125 132.917969 95.109375 132.660156 96.152344 132.453125 C 97.195312 132.246094 98.246094 132.089844 99.304688 131.984375 C 100.363281 131.878906 101.421875 131.828125 102.484375 131.828125 C 103.550781 131.828125 104.609375 131.878906 105.667969 131.984375 C 106.726562 132.089844 107.777344 132.246094 108.820312 132.453125 C 109.863281 132.660156 110.890625 132.917969 111.910156 133.226562 C 112.925781 133.539062 113.925781 133.894531 114.910156 134.304688 C 115.890625 134.710938 116.851562 135.164062 117.789062 135.667969 C 118.726562 136.167969 119.636719 136.714844 120.519531 137.308594 C 121.40625 137.898438 122.257812 138.53125 123.082031 139.207031 C 123.902344 139.882812 124.6875 140.597656 125.441406 141.351562 C 126.191406 142.105469 126.90625 142.890625 127.578125 143.714844 C 128.253906 144.539062 128.886719 145.390625 129.476562 146.277344 C 130.070312 147.164062 130.613281 148.074219 131.117188 149.015625 C 131.617188 149.953125 132.070312 150.914062 132.476562 151.898438 C 132.882812 152.882812 133.242188 153.882812 133.550781 154.902344 C 133.859375 155.921875 134.117188 156.953125 134.324219 157.996094 C 134.53125 159.042969 134.6875 160.09375 134.792969 161.152344 C 134.898438 162.214844 134.949219 163.273438 134.949219 164.339844 Z M 134.949219 164.339844 "/></g><path style=" stroke:none;fill-rule:evenodd;fill:#ffffff;fill-opacity:1;" d="M 70.515625 169.996094 L 102.488281 131.828125 L 54.417969 90.375 Z M 70.515625 169.996094 "/></g></svg>