<svg xmlns="http://www.w3.org/2000/svg" xmlns:xlink="http://www.w3.org/1999/xlink" width="1000" zoomAndPan="magnify" viewBox="0 0 750 749.999995" height="1000" preserveAspectRatio="xMidYMid meet" version="1.2"><defs><clipPath id="bf4000cafa"><path d="M 183.59375 55.960938 L 566.09375 55.960938 L 566.09375 439 L 183.59375 439 Z M 183.59375 55.960938 "/></clipPath><clipPath id="a350b7e35d"><path d="M 247 438 L 503 438 L 503 694.210938 L 247 694.210938 Z M 247 438 "/></clipPath></defs><g id="18efd13da1"><g clip-rule="nonzero" clip-path="url(#bf4000cafa)"><path style=" stroke:none;fill-rule:evenodd;fill:#ffffff;fill-opacity:1;" d="M 374.84375 55.960938 C 480.398438 55.960938 566.09375 141.75 566.09375 247.417969 C 566.09375 353.085938 480.398438 438.871094 374.84375 438.871094 C 269.289062 438.871094 183.59375 353.085938 183.59375 247.417969 C 183.59375 141.75 269.289062 55.960938 374.84375 55.960938 Z M 374.84375 183.597656 C 339.660156 183.597656 311.09375 212.195312 311.09375 247.417969 C 311.09375 282.640625 339.660156 311.234375 374.84375 311.234375 C 410.027344 311.234375 438.59375 282.640625 438.59375 247.417969 C 438.59375 212.195312 410.027344 183.597656 374.84375 183.597656 Z M 374.84375 183.597656 "/></g><g clip-rule="nonzero" clip-path="url(#a350b7e35d)"><path style=" stroke:none;fill-rule:nonzero;fill:#ffffff;fill-opacity:1;" d="M 502.34375 566.507812 C 502.34375 568.597656 502.292969 570.683594 502.191406 572.769531 C 502.085938 574.859375 501.933594 576.941406 501.730469 579.019531 C 501.523438 581.097656 501.269531 583.171875 500.964844 585.238281 C 500.65625 587.304688 500.300781 589.359375 499.894531 591.410156 C 499.488281 593.457031 499.03125 595.496094 498.523438 597.523438 C 498.015625 599.546875 497.457031 601.558594 496.851562 603.558594 C 496.246094 605.558594 495.59375 607.542969 494.890625 609.507812 C 494.1875 611.476562 493.4375 613.421875 492.636719 615.351562 C 491.839844 617.28125 490.992188 619.191406 490.101562 621.082031 C 489.210938 622.96875 488.273438 624.832031 487.289062 626.675781 C 486.304688 628.519531 485.277344 630.335938 484.203125 632.125 C 483.132812 633.917969 482.015625 635.683594 480.855469 637.417969 C 479.695312 639.15625 478.496094 640.863281 477.253906 642.542969 C 476.007812 644.21875 474.726562 645.867188 473.402344 647.480469 C 472.078125 649.09375 470.714844 650.675781 469.316406 652.222656 C 467.914062 653.773438 466.476562 655.285156 465 656.761719 C 463.523438 658.238281 462.011719 659.679688 460.46875 661.082031 C 458.921875 662.484375 457.339844 663.847656 455.730469 665.171875 C 454.117188 666.5 452.472656 667.78125 450.796875 669.027344 C 449.117188 670.273438 447.414062 671.472656 445.679688 672.632812 C 443.945312 673.796875 442.179688 674.914062 440.390625 675.984375 C 438.601562 677.058594 436.785156 678.089844 434.945312 679.074219 C 433.105469 680.058594 431.242188 680.996094 429.355469 681.890625 C 427.46875 682.785156 425.5625 683.628906 423.636719 684.429688 C 421.707031 685.230469 419.761719 685.980469 417.796875 686.683594 C 415.832031 687.386719 413.851562 688.042969 411.855469 688.648438 C 409.859375 689.253906 407.847656 689.8125 405.824219 690.320312 C 403.800781 690.828125 401.765625 691.285156 399.71875 691.691406 C 397.671875 692.101562 395.617188 692.457031 393.550781 692.761719 C 391.488281 693.070312 389.417969 693.324219 387.339844 693.53125 C 385.265625 693.734375 383.183594 693.890625 381.097656 693.992188 C 379.015625 694.09375 376.929688 694.144531 374.84375 694.144531 C 372.757812 694.144531 370.671875 694.09375 368.585938 693.992188 C 366.503906 693.890625 364.421875 693.734375 362.347656 693.53125 C 360.269531 693.324219 358.199219 693.070312 356.136719 692.765625 C 354.070312 692.457031 352.015625 692.101562 349.96875 691.691406 C 347.921875 691.285156 345.886719 690.828125 343.863281 690.320312 C 341.839844 689.8125 339.828125 689.253906 337.832031 688.648438 C 335.835938 688.042969 333.855469 687.386719 331.890625 686.683594 C 329.925781 685.980469 327.980469 685.230469 326.050781 684.429688 C 324.125 683.628906 322.214844 682.785156 320.332031 681.890625 C 318.445312 680.996094 316.582031 680.058594 314.742188 679.074219 C 312.898438 678.089844 311.085938 677.058594 309.296875 675.984375 C 307.503906 674.914062 305.742188 673.796875 304.007812 672.632812 C 302.273438 671.472656 300.566406 670.273438 298.890625 669.027344 C 297.214844 667.78125 295.570312 666.5 293.957031 665.171875 C 292.34375 663.847656 290.765625 662.484375 289.21875 661.082031 C 287.671875 659.679688 286.164062 658.238281 284.6875 656.761719 C 283.210938 655.285156 281.773438 653.773438 280.371094 652.222656 C 278.972656 650.675781 277.609375 649.09375 276.285156 647.480469 C 274.960938 645.867188 273.675781 644.21875 272.433594 642.542969 C 271.191406 640.863281 269.992188 639.15625 268.832031 637.417969 C 267.671875 635.683594 266.554688 633.917969 265.484375 632.125 C 264.410156 630.335938 263.382812 628.519531 262.398438 626.675781 C 261.414062 624.832031 260.476562 622.96875 259.585938 621.082031 C 258.691406 619.191406 257.847656 617.28125 257.050781 615.351562 C 256.25 613.421875 255.5 611.476562 254.796875 609.507812 C 254.09375 607.542969 253.4375 605.558594 252.832031 603.558594 C 252.226562 601.558594 251.671875 599.546875 251.164062 597.523438 C 250.65625 595.496094 250.199219 593.457031 249.792969 591.410156 C 249.386719 589.359375 249.03125 587.304688 248.722656 585.238281 C 248.417969 583.171875 248.160156 581.097656 247.957031 579.019531 C 247.753906 576.941406 247.597656 574.859375 247.496094 572.769531 C 247.394531 570.683594 247.34375 568.597656 247.34375 566.507812 C 247.34375 564.417969 247.394531 562.332031 247.496094 560.246094 C 247.597656 558.160156 247.753906 556.078125 247.957031 553.996094 C 248.160156 551.917969 248.417969 549.847656 248.722656 547.78125 C 249.03125 545.714844 249.386719 543.65625 249.792969 541.609375 C 250.199219 539.558594 250.65625 537.523438 251.164062 535.496094 C 251.671875 533.46875 252.226562 531.457031 252.832031 529.457031 C 253.4375 527.457031 254.09375 525.476562 254.796875 523.507812 C 255.5 521.542969 256.25 519.59375 257.050781 517.664062 C 257.847656 515.734375 258.691406 513.824219 259.585938 511.9375 C 260.476562 510.046875 261.414062 508.183594 262.398438 506.339844 C 263.382812 504.5 264.410156 502.683594 265.484375 500.890625 C 266.554688 499.097656 267.671875 497.335938 268.832031 495.597656 C 269.992188 493.859375 271.191406 492.152344 272.433594 490.476562 C 273.675781 488.796875 274.960938 487.152344 276.285156 485.535156 C 277.609375 483.921875 278.972656 482.339844 280.371094 480.792969 C 281.773438 479.246094 283.210938 477.734375 284.6875 476.253906 C 286.164062 474.777344 287.671875 473.339844 289.21875 471.9375 C 290.765625 470.535156 292.34375 469.167969 293.957031 467.84375 C 295.570312 466.519531 297.214844 465.234375 298.890625 463.988281 C 300.566406 462.746094 302.273438 461.542969 304.007812 460.382812 C 305.742188 459.222656 307.503906 458.105469 309.296875 457.03125 C 311.085938 455.957031 312.898438 454.925781 314.742188 453.941406 C 316.582031 452.957031 318.445312 452.019531 320.332031 451.125 C 322.214844 450.234375 324.125 449.386719 326.050781 448.585938 C 327.980469 447.789062 329.925781 447.035156 331.890625 446.332031 C 333.855469 445.628906 335.835938 444.972656 337.832031 444.367188 C 339.828125 443.761719 341.839844 443.203125 343.863281 442.695312 C 345.886719 442.1875 347.921875 441.730469 349.96875 441.324219 C 352.015625 440.917969 354.070312 440.558594 356.136719 440.253906 C 358.199219 439.945312 360.269531 439.691406 362.347656 439.488281 C 364.421875 439.28125 366.503906 439.128906 368.585938 439.027344 C 370.671875 438.921875 372.757812 438.871094 374.84375 438.871094 C 376.929688 438.871094 379.015625 438.921875 381.097656 439.027344 C 383.183594 439.128906 385.265625 439.28125 387.339844 439.488281 C 389.417969 439.691406 391.488281 439.945312 393.550781 440.253906 C 395.617188 440.558594 397.671875 440.917969 399.71875 441.324219 C 401.765625 441.730469 403.800781 442.1875 405.824219 442.695312 C 407.847656 443.203125 409.859375 443.761719 411.855469 444.367188 C 413.851562 444.972656 415.832031 445.628906 417.796875 446.332031 C 419.761719 447.035156 421.707031 447.789062 423.636719 448.585938 C 425.5625 449.386719 427.46875 450.234375 429.355469 451.125 C 431.242188 452.019531 433.105469 452.957031 434.945312 453.941406 C 436.785156 454.925781 438.601562 455.957031 440.390625 457.03125 C 442.179688 458.105469 443.945312 459.222656 445.679688 460.382812 C 447.414062 461.542969 449.117188 462.746094 450.796875 463.988281 C 452.472656 465.234375 454.117188 466.519531 455.730469 467.84375 C 457.339844 469.167969 458.921875 470.535156 460.46875 471.9375 C 462.011719 473.339844 463.523438 474.777344 465 476.253906 C 466.476562 477.734375 467.914062 479.246094 469.316406 480.792969 C 470.714844 482.339844 472.078125 483.921875 473.402344 485.535156 C 474.726562 487.152344 476.007812 488.796875 477.253906 490.476562 C 478.496094 492.152344 479.695312 493.859375 480.855469 495.597656 C 482.015625 497.335938 483.132812 499.097656 484.203125 500.890625 C 485.277344 502.683594 486.304688 504.5 487.289062 506.339844 C 488.273438 508.183594 489.210938 510.046875 490.101562 511.9375 C 490.992188 513.824219 491.839844 515.734375 492.636719 517.664062 C 493.4375 519.59375 494.1875 521.542969 494.890625 523.507812 C 495.59375 525.476562 496.246094 527.457031 496.851562 529.457031 C 497.457031 531.457031 498.015625 533.46875 498.523438 535.496094 C 499.03125 537.523438 499.488281 539.558594 499.894531 541.609375 C 500.300781 543.65625 500.65625 545.714844 500.964844 547.78125 C 501.269531 549.847656 501.523438 551.917969 501.730469 553.996094 C 501.933594 556.078125 502.085938 558.160156 502.191406 560.246094 C 502.292969 562.332031 502.34375 564.417969 502.34375 566.507812 Z M 502.34375 566.507812 "/></g><path style=" stroke:none;fill-rule:evenodd;fill:#ffffff;fill-opacity:1;" d="M 249.28125 588.714844 L 374.859375 438.875 L 186.054688 276.132812 Z M 249.28125 588.714844 "/></g></svg>