<svg xmlns="http://www.w3.org/2000/svg" xmlns:xlink="http://www.w3.org/1999/xlink" width="1000" zoomAndPan="magnify" viewBox="0 0 750 749.999995" height="1000" preserveAspectRatio="xMidYMid meet" version="1.2"><defs><clipPath id="5968d76d2d"><path d="M 183.59375 55.960938 L 566.09375 55.960938 L 566.09375 439 L 183.59375 439 Z M 183.59375 55.960938 "/></clipPath></defs><g id="c6c0d93b28"><g clip-rule="nonzero" clip-path="url(#5968d76d2d)"><path style=" stroke:none;fill-rule:evenodd;fill:#1d546b;fill-opacity:1;" d="M 374.84375 55.960938 C 480.398438 55.960938 566.09375 141.660156 566.09375 247.210938 C 566.09375 352.765625 480.398438 438.460938 374.84375 438.460938 C 269.289062 438.460938 183.59375 352.765625 183.59375 247.210938 C 183.59375 141.660156 269.289062 55.960938 374.84375 55.960938 Z M 374.84375 183.460938 C 339.660156 183.460938 311.09375 212.027344 311.09375 247.210938 C 311.09375 282.398438 339.660156 310.960938 374.84375 310.960938 C 410.027344 310.960938 438.59375 282.398438 438.59375 247.210938 C 438.59375 212.027344 410.027344 183.460938 374.84375 183.460938 Z M 374.84375 183.460938 "/></g><path style=" stroke:none;fill-rule:nonzero;fill:#1d546b;fill-opacity:1;" d="M 502.34375 565.960938 C 502.34375 568.046875 502.292969 570.132812 502.191406 572.21875 C 502.085938 574.300781 501.933594 576.382812 501.730469 578.457031 C 501.523438 580.535156 501.269531 582.605469 500.964844 584.667969 C 500.65625 586.734375 500.300781 588.789062 499.894531 590.835938 C 499.488281 592.882812 499.03125 594.917969 498.523438 596.941406 C 498.015625 598.964844 497.457031 600.976562 496.851562 602.972656 C 496.246094 604.96875 495.59375 606.949219 494.890625 608.914062 C 494.1875 610.878906 493.4375 612.824219 492.636719 614.753906 C 491.839844 616.679688 490.992188 618.589844 490.101562 620.476562 C 489.210938 622.359375 488.273438 624.222656 487.289062 626.066406 C 486.304688 627.90625 485.277344 629.71875 484.203125 631.507812 C 483.132812 633.300781 482.015625 635.0625 480.855469 636.796875 C 479.695312 638.53125 478.496094 640.238281 477.253906 641.914062 C 476.007812 643.589844 474.726562 645.234375 473.402344 646.847656 C 472.078125 648.460938 470.714844 650.039062 469.316406 651.585938 C 467.914062 653.132812 466.476562 654.640625 465 656.117188 C 463.523438 657.59375 462.011719 659.03125 460.46875 660.433594 C 458.921875 661.835938 457.339844 663.195312 455.730469 664.519531 C 454.117188 665.84375 452.472656 667.128906 450.796875 668.371094 C 449.117188 669.613281 447.414062 670.816406 445.679688 671.972656 C 443.945312 673.132812 442.179688 674.25 440.390625 675.320312 C 438.601562 676.394531 436.785156 677.421875 434.945312 678.40625 C 433.105469 679.390625 431.242188 680.328125 429.355469 681.21875 C 427.46875 682.113281 425.5625 682.957031 423.636719 683.757812 C 421.707031 684.554688 419.761719 685.304688 417.796875 686.007812 C 415.832031 686.710938 413.851562 687.367188 411.855469 687.972656 C 409.859375 688.578125 407.847656 689.132812 405.824219 689.640625 C 403.800781 690.148438 401.765625 690.605469 399.71875 691.011719 C 397.671875 691.417969 395.617188 691.773438 393.550781 692.082031 C 391.488281 692.386719 389.417969 692.644531 387.339844 692.847656 C 385.265625 693.050781 383.183594 693.207031 381.097656 693.308594 C 379.015625 693.410156 376.929688 693.460938 374.84375 693.460938 C 372.757812 693.460938 370.671875 693.410156 368.585938 693.308594 C 366.503906 693.207031 364.421875 693.050781 362.347656 692.847656 C 360.269531 692.644531 358.199219 692.386719 356.136719 692.082031 C 354.070312 691.773438 352.015625 691.417969 349.96875 691.011719 C 347.921875 690.605469 345.886719 690.148438 343.863281 689.640625 C 341.839844 689.132812 339.828125 688.578125 337.832031 687.972656 C 335.835938 687.367188 333.855469 686.710938 331.890625 686.007812 C 329.925781 685.304688 327.980469 684.554688 326.050781 683.757812 C 324.125 682.957031 322.214844 682.113281 320.332031 681.21875 C 318.445312 680.328125 316.582031 679.390625 314.742188 678.40625 C 312.898438 677.421875 311.085938 676.394531 309.296875 675.320312 C 307.503906 674.25 305.742188 673.132812 304.007812 671.972656 C 302.273438 670.816406 300.566406 669.613281 298.890625 668.371094 C 297.214844 667.128906 295.570312 665.84375 293.957031 664.519531 C 292.34375 663.195312 290.765625 661.835938 289.21875 660.433594 C 287.671875 659.03125 286.164062 657.59375 284.6875 656.117188 C 283.210938 654.640625 281.773438 653.132812 280.371094 651.585938 C 278.972656 650.039062 277.609375 648.460938 276.285156 646.847656 C 274.960938 645.234375 273.675781 643.589844 272.433594 641.914062 C 271.191406 640.238281 269.992188 638.53125 268.832031 636.796875 C 267.671875 635.0625 266.554688 633.300781 265.484375 631.507812 C 264.410156 629.71875 263.382812 627.90625 262.398438 626.066406 C 261.414062 624.222656 260.476562 622.359375 259.585938 620.476562 C 258.691406 618.589844 257.847656 616.679688 257.050781 614.753906 C 256.25 612.824219 255.5 610.878906 254.796875 608.914062 C 254.09375 606.949219 253.4375 604.96875 252.832031 602.972656 C 252.226562 600.976562 251.671875 598.964844 251.164062 596.941406 C 250.65625 594.917969 250.199219 592.882812 249.792969 590.835938 C 249.386719 588.789062 249.03125 586.734375 248.722656 584.667969 C 248.417969 582.605469 248.160156 580.535156 247.957031 578.457031 C 247.753906 576.382812 247.597656 574.300781 247.496094 572.21875 C 247.394531 570.132812 247.34375 568.046875 247.34375 565.960938 C 247.34375 563.875 247.394531 561.789062 247.496094 559.707031 C 247.597656 557.621094 247.753906 555.542969 247.957031 553.464844 C 248.160156 551.386719 248.417969 549.316406 248.722656 547.253906 C 249.03125 545.1875 249.386719 543.132812 249.792969 541.085938 C 250.199219 539.039062 250.65625 537.003906 251.164062 534.980469 C 251.671875 532.957031 252.226562 530.945312 252.832031 528.949219 C 253.4375 526.953125 254.09375 524.972656 254.796875 523.007812 C 255.5 521.042969 256.25 519.097656 257.050781 517.167969 C 257.847656 515.242188 258.691406 513.335938 259.585938 511.449219 C 260.476562 509.5625 261.414062 507.699219 262.398438 505.859375 C 263.382812 504.019531 264.410156 502.203125 265.484375 500.414062 C 266.554688 498.625 267.671875 496.863281 268.832031 495.125 C 269.992188 493.390625 271.191406 491.6875 272.433594 490.011719 C 273.675781 488.335938 274.960938 486.691406 276.285156 485.078125 C 277.609375 483.464844 278.972656 481.882812 280.371094 480.339844 C 281.773438 478.792969 283.210938 477.28125 284.6875 475.804688 C 286.164062 474.332031 287.671875 472.890625 289.21875 471.492188 C 290.765625 470.089844 292.34375 468.726562 293.957031 467.402344 C 295.570312 466.078125 297.214844 464.796875 298.890625 463.550781 C 300.566406 462.308594 302.273438 461.109375 304.007812 459.949219 C 305.742188 458.789062 307.503906 457.675781 309.296875 456.601562 C 311.085938 455.527344 312.898438 454.5 314.742188 453.515625 C 316.582031 452.53125 318.445312 451.59375 320.332031 450.703125 C 322.214844 449.8125 324.125 448.964844 326.050781 448.167969 C 327.980469 447.367188 329.925781 446.617188 331.890625 445.914062 C 333.855469 445.210938 335.835938 444.558594 337.832031 443.953125 C 339.828125 443.347656 341.839844 442.789062 343.863281 442.28125 C 345.886719 441.777344 347.921875 441.320312 349.96875 440.910156 C 352.015625 440.503906 354.070312 440.148438 356.136719 439.839844 C 358.199219 439.535156 360.269531 439.28125 362.347656 439.074219 C 364.421875 438.871094 366.503906 438.71875 368.585938 438.617188 C 370.671875 438.511719 372.757812 438.460938 374.84375 438.460938 C 376.929688 438.460938 379.015625 438.511719 381.097656 438.617188 C 383.183594 438.71875 385.265625 438.871094 387.339844 439.074219 C 389.417969 439.28125 391.488281 439.535156 393.550781 439.839844 C 395.617188 440.148438 397.671875 440.503906 399.71875 440.910156 C 401.765625 441.320312 403.800781 441.777344 405.824219 442.28125 C 407.847656 442.789062 409.859375 443.347656 411.855469 443.953125 C 413.851562 444.558594 415.832031 445.210938 417.796875 445.914062 C 419.761719 446.617188 421.707031 447.367188 423.636719 448.167969 C 425.5625 448.964844 427.46875 449.8125 429.355469 450.703125 C 431.242188 451.59375 433.105469 452.53125 434.945312 453.515625 C 436.785156 454.5 438.601562 455.527344 440.390625 456.601562 C 442.179688 457.675781 443.945312 458.789062 445.679688 459.949219 C 447.414062 461.109375 449.117188 462.308594 450.796875 463.550781 C 452.472656 464.796875 454.117188 466.078125 455.730469 467.402344 C 457.339844 468.726562 458.921875 470.089844 460.46875 471.492188 C 462.011719 472.890625 463.523438 474.332031 465 475.804688 C 466.476562 477.28125 467.914062 478.792969 469.316406 480.339844 C 470.714844 481.882812 472.078125 483.464844 473.402344 485.078125 C 474.726562 486.691406 476.007812 488.335938 477.253906 490.011719 C 478.496094 491.6875 479.695312 493.390625 480.855469 495.125 C 482.015625 496.863281 483.132812 498.625 484.203125 500.414062 C 485.277344 502.203125 486.304688 504.019531 487.289062 505.859375 C 488.273438 507.699219 489.210938 509.5625 490.101562 511.449219 C 490.992188 513.335938 491.839844 515.242188 492.636719 517.167969 C 493.4375 519.097656 494.1875 521.042969 494.890625 523.007812 C 495.59375 524.972656 496.246094 526.953125 496.851562 528.949219 C 497.457031 530.945312 498.015625 532.957031 498.523438 534.980469 C 499.03125 537.003906 499.488281 539.039062 499.894531 541.085938 C 500.300781 543.132812 500.65625 545.1875 500.964844 547.253906 C 501.269531 549.316406 501.523438 551.386719 501.730469 553.464844 C 501.933594 555.542969 502.085938 557.621094 502.191406 559.707031 C 502.292969 561.789062 502.34375 563.875 502.34375 565.960938 Z M 502.34375 565.960938 "/><path style=" stroke:none;fill-rule:evenodd;fill:#1d546b;fill-opacity:1;" d="M 249.28125 588.144531 L 374.859375 438.464844 L 186.054688 275.898438 Z M 249.28125 588.144531 "/></g></svg>