<svg xmlns="http://www.w3.org/2000/svg" xmlns:xlink="http://www.w3.org/1999/xlink" width="1000" zoomAndPan="magnify" viewBox="0 0 750 231.75" height="309" preserveAspectRatio="xMidYMid meet" version="1.2"><defs><clipPath id="08b75d9a38"><path d="M 53.789062 34.292969 L 151.183594 34.292969 L 151.183594 132 L 53.789062 132 Z M 53.789062 34.292969 "/></clipPath><clipPath id="436ffe1b35"><path d="M 70 131 L 135 131 L 135 196.867188 L 70 196.867188 Z M 70 131 "/></clipPath></defs><g id="395a6e6dbe"><g style="fill:#000000;fill-opacity:0.302;"><g transform="translate(190.562152, 148.247878)"><path style="stroke:none" d="M 29.078125 -52.734375 C 33.753906 -52.734375 37.8125 -51.953125 41.25 -50.390625 C 44.6875 -48.835938 47.332031 -46.628906 49.1875 -43.765625 C 51.050781 -40.910156 51.984375 -37.523438 51.984375 -33.609375 C 51.984375 -29.734375 51.050781 -26.351562 49.1875 -23.46875 C 47.332031 -20.582031 44.6875 -18.375 41.25 -16.84375 C 37.8125 -15.3125 33.753906 -14.546875 29.078125 -14.546875 L 18.453125 -14.546875 L 18.453125 0 L 6.25 0 L 6.25 -52.734375 Z M 28.40625 -24.484375 C 32.070312 -24.484375 34.859375 -25.273438 36.765625 -26.859375 C 38.671875 -28.441406 39.625 -30.691406 39.625 -33.609375 C 39.625 -36.566406 38.671875 -38.835938 36.765625 -40.421875 C 34.859375 -42.003906 32.070312 -42.796875 28.40625 -42.796875 L 18.453125 -42.796875 L 18.453125 -24.484375 Z M 28.40625 -24.484375 "/></g></g><g style="fill:#000000;fill-opacity:0.302;"><g transform="translate(244.886047, 148.247878)"><path style="stroke:none" d="M 24.71875 0.609375 C 20.445312 0.609375 16.613281 -0.28125 13.21875 -2.0625 C 9.832031 -3.851562 7.179688 -6.328125 5.265625 -9.484375 C 3.359375 -12.648438 2.40625 -16.242188 2.40625 -20.265625 C 2.40625 -24.285156 3.359375 -27.875 5.265625 -31.03125 C 7.179688 -34.195312 9.832031 -36.671875 13.21875 -38.453125 C 16.613281 -40.242188 20.445312 -41.140625 24.71875 -41.140625 C 28.976562 -41.140625 32.789062 -40.242188 36.15625 -38.453125 C 39.53125 -36.671875 42.171875 -34.195312 44.078125 -31.03125 C 45.984375 -27.875 46.9375 -24.285156 46.9375 -20.265625 C 46.9375 -16.242188 45.984375 -12.648438 44.078125 -9.484375 C 42.171875 -6.328125 39.53125 -3.851562 36.15625 -2.0625 C 32.789062 -0.28125 28.976562 0.609375 24.71875 0.609375 Z M 24.71875 -9.046875 C 27.726562 -9.046875 30.195312 -10.0625 32.125 -12.09375 C 34.0625 -14.125 35.03125 -16.847656 35.03125 -20.265625 C 35.03125 -23.679688 34.0625 -26.40625 32.125 -28.4375 C 30.195312 -30.476562 27.726562 -31.5 24.71875 -31.5 C 21.695312 -31.5 19.207031 -30.476562 17.25 -28.4375 C 15.289062 -26.40625 14.3125 -23.679688 14.3125 -20.265625 C 14.3125 -16.847656 15.289062 -14.125 17.25 -12.09375 C 19.207031 -10.0625 21.695312 -9.046875 24.71875 -9.046875 Z M 24.71875 -9.046875 "/></g></g><g style="fill:#000000;fill-opacity:0.302;"><g transform="translate(294.237169, 148.247878)"><path style="stroke:none" d="M 5.421875 -40.53125 L 17.171875 -40.53125 L 17.171875 0 L 5.421875 0 Z M 11.296875 -46.1875 C 9.140625 -46.1875 7.382812 -46.8125 6.03125 -48.0625 C 4.675781 -49.320312 4 -50.878906 4 -52.734375 C 4 -54.597656 4.675781 -56.15625 6.03125 -57.40625 C 7.382812 -58.664062 9.140625 -59.296875 11.296875 -59.296875 C 13.460938 -59.296875 15.222656 -58.691406 16.578125 -57.484375 C 17.929688 -56.273438 18.609375 -54.769531 18.609375 -52.96875 C 18.609375 -51.007812 17.929688 -49.390625 16.578125 -48.109375 C 15.222656 -46.828125 13.460938 -46.1875 11.296875 -46.1875 Z M 11.296875 -46.1875 "/></g></g><g style="fill:#000000;fill-opacity:0.302;"><g transform="translate(316.916079, 148.247878)"><path style="stroke:none" d="M 30.0625 -41.140625 C 35.082031 -41.140625 39.132812 -39.628906 42.21875 -36.609375 C 45.3125 -33.597656 46.859375 -29.128906 46.859375 -23.203125 L 46.859375 0 L 35.109375 0 L 35.109375 -21.390625 C 35.109375 -24.609375 34.40625 -27.007812 33 -28.59375 C 31.59375 -30.175781 29.554688 -30.96875 26.890625 -30.96875 C 23.929688 -30.96875 21.570312 -30.050781 19.8125 -28.21875 C 18.050781 -26.382812 17.171875 -23.660156 17.171875 -20.046875 L 17.171875 0 L 5.421875 0 L 5.421875 -40.53125 L 16.65625 -40.53125 L 16.65625 -35.78125 C 18.207031 -37.488281 20.140625 -38.804688 22.453125 -39.734375 C 24.765625 -40.671875 27.300781 -41.140625 30.0625 -41.140625 Z M 30.0625 -41.140625 "/></g></g><g style="fill:#000000;fill-opacity:0.302;"><g transform="translate(368.97962, 148.247878)"><path style="stroke:none" d="M 31.5625 -1.953125 C 30.414062 -1.097656 29 -0.457031 27.3125 -0.03125 C 25.625 0.394531 23.851562 0.609375 22 0.609375 C 17.175781 0.609375 13.445312 -0.617188 10.8125 -3.078125 C 8.175781 -5.546875 6.859375 -9.164062 6.859375 -13.9375 L 6.859375 -30.59375 L 0.609375 -30.59375 L 0.609375 -39.625 L 6.859375 -39.625 L 6.859375 -49.5 L 18.609375 -49.5 L 18.609375 -39.625 L 28.703125 -39.625 L 28.703125 -30.59375 L 18.609375 -30.59375 L 18.609375 -14.09375 C 18.609375 -12.382812 19.046875 -11.0625 19.921875 -10.125 C 20.804688 -9.195312 22.050781 -8.734375 23.65625 -8.734375 C 25.519531 -8.734375 27.101562 -9.238281 28.40625 -10.25 Z M 31.5625 -1.953125 "/></g></g><g style="fill:#000000;fill-opacity:0.302;"><g transform="translate(401.754803, 148.247878)"><path style="stroke:none" d=""/></g></g><g style="fill:#000000;fill-opacity:0.302;"><g transform="translate(423.077498, 148.247878)"><path style="stroke:none" d="M 42.34375 -9.953125 L 42.34375 0 L 2.484375 0 L 2.484375 -7.90625 L 22.828125 -27.125 C 24.984375 -29.1875 26.4375 -30.957031 27.1875 -32.4375 C 27.945312 -33.914062 28.328125 -35.382812 28.328125 -36.84375 C 28.328125 -38.945312 27.609375 -40.5625 26.171875 -41.6875 C 24.742188 -42.820312 22.648438 -43.390625 19.890625 -43.390625 C 17.578125 -43.390625 15.488281 -42.953125 13.625 -42.078125 C 11.769531 -41.203125 10.21875 -39.882812 8.96875 -38.125 L 0.078125 -43.84375 C 2.140625 -46.914062 4.976562 -49.316406 8.59375 -51.046875 C 12.207031 -52.773438 16.347656 -53.640625 21.015625 -53.640625 C 24.929688 -53.640625 28.359375 -53 31.296875 -51.71875 C 34.242188 -50.4375 36.53125 -48.628906 38.15625 -46.296875 C 39.789062 -43.960938 40.609375 -41.210938 40.609375 -38.046875 C 40.609375 -35.179688 40.003906 -32.492188 38.796875 -29.984375 C 37.597656 -27.472656 35.265625 -24.609375 31.796875 -21.390625 L 19.671875 -9.953125 Z M 42.34375 -9.953125 "/></g></g><g style="fill:#000000;fill-opacity:0.302;"><g transform="translate(467.531186, 148.247878)"><path style="stroke:none" d=""/></g></g><g style="fill:#000000;fill-opacity:0.302;"><g transform="translate(488.853881, 148.247878)"><path style="stroke:none" d="M 29.078125 -52.734375 C 33.753906 -52.734375 37.8125 -51.953125 41.25 -50.390625 C 44.6875 -48.835938 47.332031 -46.628906 49.1875 -43.765625 C 51.050781 -40.910156 51.984375 -37.523438 51.984375 -33.609375 C 51.984375 -29.734375 51.050781 -26.351562 49.1875 -23.46875 C 47.332031 -20.582031 44.6875 -18.375 41.25 -16.84375 C 37.8125 -15.3125 33.753906 -14.546875 29.078125 -14.546875 L 18.453125 -14.546875 L 18.453125 0 L 6.25 0 L 6.25 -52.734375 Z M 28.40625 -24.484375 C 32.070312 -24.484375 34.859375 -25.273438 36.765625 -26.859375 C 38.671875 -28.441406 39.625 -30.691406 39.625 -33.609375 C 39.625 -36.566406 38.671875 -38.835938 36.765625 -40.421875 C 34.859375 -42.003906 32.070312 -42.796875 28.40625 -42.796875 L 18.453125 -42.796875 L 18.453125 -24.484375 Z M 28.40625 -24.484375 "/></g></g><g style="fill:#000000;fill-opacity:0.302;"><g transform="translate(543.177776, 148.247878)"><path style="stroke:none" d="M 24.71875 0.609375 C 20.445312 0.609375 16.613281 -0.28125 13.21875 -2.0625 C 9.832031 -3.851562 7.179688 -6.328125 5.265625 -9.484375 C 3.359375 -12.648438 2.40625 -16.242188 2.40625 -20.265625 C 2.40625 -24.285156 3.359375 -27.875 5.265625 -31.03125 C 7.179688 -34.195312 9.832031 -36.671875 13.21875 -38.453125 C 16.613281 -40.242188 20.445312 -41.140625 24.71875 -41.140625 C 28.976562 -41.140625 32.789062 -40.242188 36.15625 -38.453125 C 39.53125 -36.671875 42.171875 -34.195312 44.078125 -31.03125 C 45.984375 -27.875 46.9375 -24.285156 46.9375 -20.265625 C 46.9375 -16.242188 45.984375 -12.648438 44.078125 -9.484375 C 42.171875 -6.328125 39.53125 -3.851562 36.15625 -2.0625 C 32.789062 -0.28125 28.976562 0.609375 24.71875 0.609375 Z M 24.71875 -9.046875 C 27.726562 -9.046875 30.195312 -10.0625 32.125 -12.09375 C 34.0625 -14.125 35.03125 -16.847656 35.03125 -20.265625 C 35.03125 -23.679688 34.0625 -26.40625 32.125 -28.4375 C 30.195312 -30.476562 27.726562 -31.5 24.71875 -31.5 C 21.695312 -31.5 19.207031 -30.476562 17.25 -28.4375 C 15.289062 -26.40625 14.3125 -23.679688 14.3125 -20.265625 C 14.3125 -16.847656 15.289062 -14.125 17.25 -12.09375 C 19.207031 -10.0625 21.695312 -9.046875 24.71875 -9.046875 Z M 24.71875 -9.046875 "/></g></g><g style="fill:#000000;fill-opacity:0.302;"><g transform="translate(592.528909, 148.247878)"><path style="stroke:none" d="M 5.421875 -40.53125 L 17.171875 -40.53125 L 17.171875 0 L 5.421875 0 Z M 11.296875 -46.1875 C 9.140625 -46.1875 7.382812 -46.8125 6.03125 -48.0625 C 4.675781 -49.320312 4 -50.878906 4 -52.734375 C 4 -54.597656 4.675781 -56.15625 6.03125 -57.40625 C 7.382812 -58.664062 9.140625 -59.296875 11.296875 -59.296875 C 13.460938 -59.296875 15.222656 -58.691406 16.578125 -57.484375 C 17.929688 -56.273438 18.609375 -54.769531 18.609375 -52.96875 C 18.609375 -51.007812 17.929688 -49.390625 16.578125 -48.109375 C 15.222656 -46.828125 13.460938 -46.1875 11.296875 -46.1875 Z M 11.296875 -46.1875 "/></g></g><g style="fill:#000000;fill-opacity:0.302;"><g transform="translate(615.207828, 148.247878)"><path style="stroke:none" d="M 30.0625 -41.140625 C 35.082031 -41.140625 39.132812 -39.628906 42.21875 -36.609375 C 45.3125 -33.597656 46.859375 -29.128906 46.859375 -23.203125 L 46.859375 0 L 35.109375 0 L 35.109375 -21.390625 C 35.109375 -24.609375 34.40625 -27.007812 33 -28.59375 C 31.59375 -30.175781 29.554688 -30.96875 26.890625 -30.96875 C 23.929688 -30.96875 21.570312 -30.050781 19.8125 -28.21875 C 18.050781 -26.382812 17.171875 -23.660156 17.171875 -20.046875 L 17.171875 0 L 5.421875 0 L 5.421875 -40.53125 L 16.65625 -40.53125 L 16.65625 -35.78125 C 18.207031 -37.488281 20.140625 -38.804688 22.453125 -39.734375 C 24.765625 -40.671875 27.300781 -41.140625 30.0625 -41.140625 Z M 30.0625 -41.140625 "/></g></g><g style="fill:#000000;fill-opacity:0.302;"><g transform="translate(667.271369, 148.247878)"><path style="stroke:none" d="M 31.5625 -1.953125 C 30.414062 -1.097656 29 -0.457031 27.3125 -0.03125 C 25.625 0.394531 23.851562 0.609375 22 0.609375 C 17.175781 0.609375 13.445312 -0.617188 10.8125 -3.078125 C 8.175781 -5.546875 6.859375 -9.164062 6.859375 -13.9375 L 6.859375 -30.59375 L 0.609375 -30.59375 L 0.609375 -39.625 L 6.859375 -39.625 L 6.859375 -49.5 L 18.609375 -49.5 L 18.609375 -39.625 L 28.703125 -39.625 L 28.703125 -30.59375 L 18.609375 -30.59375 L 18.609375 -14.09375 C 18.609375 -12.382812 19.046875 -11.0625 19.921875 -10.125 C 20.804688 -9.195312 22.050781 -8.734375 23.65625 -8.734375 C 25.519531 -8.734375 27.101562 -9.238281 28.40625 -10.25 Z M 31.5625 -1.953125 "/></g></g><g style="fill:#1d546b;fill-opacity:1;"><g transform="translate(186.726642, 142.770212)"><path style="stroke:none" d="M 29.078125 -52.734375 C 33.753906 -52.734375 37.8125 -51.953125 41.25 -50.390625 C 44.6875 -48.835938 47.332031 -46.628906 49.1875 -43.765625 C 51.050781 -40.910156 51.984375 -37.523438 51.984375 -33.609375 C 51.984375 -29.734375 51.050781 -26.351562 49.1875 -23.46875 C 47.332031 -20.582031 44.6875 -18.375 41.25 -16.84375 C 37.8125 -15.3125 33.753906 -14.546875 29.078125 -14.546875 L 18.453125 -14.546875 L 18.453125 0 L 6.25 0 L 6.25 -52.734375 Z M 28.40625 -24.484375 C 32.070312 -24.484375 34.859375 -25.273438 36.765625 -26.859375 C 38.671875 -28.441406 39.625 -30.691406 39.625 -33.609375 C 39.625 -36.566406 38.671875 -38.835938 36.765625 -40.421875 C 34.859375 -42.003906 32.070312 -42.796875 28.40625 -42.796875 L 18.453125 -42.796875 L 18.453125 -24.484375 Z M 28.40625 -24.484375 "/></g></g><g style="fill:#1d546b;fill-opacity:1;"><g transform="translate(241.050538, 142.770212)"><path style="stroke:none" d="M 24.71875 0.609375 C 20.445312 0.609375 16.613281 -0.28125 13.21875 -2.0625 C 9.832031 -3.851562 7.179688 -6.328125 5.265625 -9.484375 C 3.359375 -12.648438 2.40625 -16.242188 2.40625 -20.265625 C 2.40625 -24.285156 3.359375 -27.875 5.265625 -31.03125 C 7.179688 -34.195312 9.832031 -36.671875 13.21875 -38.453125 C 16.613281 -40.242188 20.445312 -41.140625 24.71875 -41.140625 C 28.976562 -41.140625 32.789062 -40.242188 36.15625 -38.453125 C 39.53125 -36.671875 42.171875 -34.195312 44.078125 -31.03125 C 45.984375 -27.875 46.9375 -24.285156 46.9375 -20.265625 C 46.9375 -16.242188 45.984375 -12.648438 44.078125 -9.484375 C 42.171875 -6.328125 39.53125 -3.851562 36.15625 -2.0625 C 32.789062 -0.28125 28.976562 0.609375 24.71875 0.609375 Z M 24.71875 -9.046875 C 27.726562 -9.046875 30.195312 -10.0625 32.125 -12.09375 C 34.0625 -14.125 35.03125 -16.847656 35.03125 -20.265625 C 35.03125 -23.679688 34.0625 -26.40625 32.125 -28.4375 C 30.195312 -30.476562 27.726562 -31.5 24.71875 -31.5 C 21.695312 -31.5 19.207031 -30.476562 17.25 -28.4375 C 15.289062 -26.40625 14.3125 -23.679688 14.3125 -20.265625 C 14.3125 -16.847656 15.289062 -14.125 17.25 -12.09375 C 19.207031 -10.0625 21.695312 -9.046875 24.71875 -9.046875 Z M 24.71875 -9.046875 "/></g></g><g style="fill:#1d546b;fill-opacity:1;"><g transform="translate(290.40166, 142.770212)"><path style="stroke:none" d="M 5.421875 -40.53125 L 17.171875 -40.53125 L 17.171875 0 L 5.421875 0 Z M 11.296875 -46.1875 C 9.140625 -46.1875 7.382812 -46.8125 6.03125 -48.0625 C 4.675781 -49.320312 4 -50.878906 4 -52.734375 C 4 -54.597656 4.675781 -56.15625 6.03125 -57.40625 C 7.382812 -58.664062 9.140625 -59.296875 11.296875 -59.296875 C 13.460938 -59.296875 15.222656 -58.691406 16.578125 -57.484375 C 17.929688 -56.273438 18.609375 -54.769531 18.609375 -52.96875 C 18.609375 -51.007812 17.929688 -49.390625 16.578125 -48.109375 C 15.222656 -46.828125 13.460938 -46.1875 11.296875 -46.1875 Z M 11.296875 -46.1875 "/></g></g><g style="fill:#1d546b;fill-opacity:1;"><g transform="translate(313.080569, 142.770212)"><path style="stroke:none" d="M 30.0625 -41.140625 C 35.082031 -41.140625 39.132812 -39.628906 42.21875 -36.609375 C 45.3125 -33.597656 46.859375 -29.128906 46.859375 -23.203125 L 46.859375 0 L 35.109375 0 L 35.109375 -21.390625 C 35.109375 -24.609375 34.40625 -27.007812 33 -28.59375 C 31.59375 -30.175781 29.554688 -30.96875 26.890625 -30.96875 C 23.929688 -30.96875 21.570312 -30.050781 19.8125 -28.21875 C 18.050781 -26.382812 17.171875 -23.660156 17.171875 -20.046875 L 17.171875 0 L 5.421875 0 L 5.421875 -40.53125 L 16.65625 -40.53125 L 16.65625 -35.78125 C 18.207031 -37.488281 20.140625 -38.804688 22.453125 -39.734375 C 24.765625 -40.671875 27.300781 -41.140625 30.0625 -41.140625 Z M 30.0625 -41.140625 "/></g></g><g style="fill:#1d546b;fill-opacity:1;"><g transform="translate(365.14411, 142.770212)"><path style="stroke:none" d="M 31.5625 -1.953125 C 30.414062 -1.097656 29 -0.457031 27.3125 -0.03125 C 25.625 0.394531 23.851562 0.609375 22 0.609375 C 17.175781 0.609375 13.445312 -0.617188 10.8125 -3.078125 C 8.175781 -5.546875 6.859375 -9.164062 6.859375 -13.9375 L 6.859375 -30.59375 L 0.609375 -30.59375 L 0.609375 -39.625 L 6.859375 -39.625 L 6.859375 -49.5 L 18.609375 -49.5 L 18.609375 -39.625 L 28.703125 -39.625 L 28.703125 -30.59375 L 18.609375 -30.59375 L 18.609375 -14.09375 C 18.609375 -12.382812 19.046875 -11.0625 19.921875 -10.125 C 20.804688 -9.195312 22.050781 -8.734375 23.65625 -8.734375 C 25.519531 -8.734375 27.101562 -9.238281 28.40625 -10.25 Z M 31.5625 -1.953125 "/></g></g><g style="fill:#1d546b;fill-opacity:1;"><g transform="translate(397.919294, 142.770212)"><path style="stroke:none" d=""/></g></g><g style="fill:#1d546b;fill-opacity:1;"><g transform="translate(419.241988, 142.770212)"><path style="stroke:none" d="M 42.34375 -9.953125 L 42.34375 0 L 2.484375 0 L 2.484375 -7.90625 L 22.828125 -27.125 C 24.984375 -29.1875 26.4375 -30.957031 27.1875 -32.4375 C 27.945312 -33.914062 28.328125 -35.382812 28.328125 -36.84375 C 28.328125 -38.945312 27.609375 -40.5625 26.171875 -41.6875 C 24.742188 -42.820312 22.648438 -43.390625 19.890625 -43.390625 C 17.578125 -43.390625 15.488281 -42.953125 13.625 -42.078125 C 11.769531 -41.203125 10.21875 -39.882812 8.96875 -38.125 L 0.078125 -43.84375 C 2.140625 -46.914062 4.976562 -49.316406 8.59375 -51.046875 C 12.207031 -52.773438 16.347656 -53.640625 21.015625 -53.640625 C 24.929688 -53.640625 28.359375 -53 31.296875 -51.71875 C 34.242188 -50.4375 36.53125 -48.628906 38.15625 -46.296875 C 39.789062 -43.960938 40.609375 -41.210938 40.609375 -38.046875 C 40.609375 -35.179688 40.003906 -32.492188 38.796875 -29.984375 C 37.597656 -27.472656 35.265625 -24.609375 31.796875 -21.390625 L 19.671875 -9.953125 Z M 42.34375 -9.953125 "/></g></g><g style="fill:#1d546b;fill-opacity:1;"><g transform="translate(463.695677, 142.770212)"><path style="stroke:none" d=""/></g></g><g style="fill:#1d546b;fill-opacity:1;"><g transform="translate(485.018371, 142.770212)"><path style="stroke:none" d="M 29.078125 -52.734375 C 33.753906 -52.734375 37.8125 -51.953125 41.25 -50.390625 C 44.6875 -48.835938 47.332031 -46.628906 49.1875 -43.765625 C 51.050781 -40.910156 51.984375 -37.523438 51.984375 -33.609375 C 51.984375 -29.734375 51.050781 -26.351562 49.1875 -23.46875 C 47.332031 -20.582031 44.6875 -18.375 41.25 -16.84375 C 37.8125 -15.3125 33.753906 -14.546875 29.078125 -14.546875 L 18.453125 -14.546875 L 18.453125 0 L 6.25 0 L 6.25 -52.734375 Z M 28.40625 -24.484375 C 32.070312 -24.484375 34.859375 -25.273438 36.765625 -26.859375 C 38.671875 -28.441406 39.625 -30.691406 39.625 -33.609375 C 39.625 -36.566406 38.671875 -38.835938 36.765625 -40.421875 C 34.859375 -42.003906 32.070312 -42.796875 28.40625 -42.796875 L 18.453125 -42.796875 L 18.453125 -24.484375 Z M 28.40625 -24.484375 "/></g></g><g style="fill:#1d546b;fill-opacity:1;"><g transform="translate(539.342267, 142.770212)"><path style="stroke:none" d="M 24.71875 0.609375 C 20.445312 0.609375 16.613281 -0.28125 13.21875 -2.0625 C 9.832031 -3.851562 7.179688 -6.328125 5.265625 -9.484375 C 3.359375 -12.648438 2.40625 -16.242188 2.40625 -20.265625 C 2.40625 -24.285156 3.359375 -27.875 5.265625 -31.03125 C 7.179688 -34.195312 9.832031 -36.671875 13.21875 -38.453125 C 16.613281 -40.242188 20.445312 -41.140625 24.71875 -41.140625 C 28.976562 -41.140625 32.789062 -40.242188 36.15625 -38.453125 C 39.53125 -36.671875 42.171875 -34.195312 44.078125 -31.03125 C 45.984375 -27.875 46.9375 -24.285156 46.9375 -20.265625 C 46.9375 -16.242188 45.984375 -12.648438 44.078125 -9.484375 C 42.171875 -6.328125 39.53125 -3.851562 36.15625 -2.0625 C 32.789062 -0.28125 28.976562 0.609375 24.71875 0.609375 Z M 24.71875 -9.046875 C 27.726562 -9.046875 30.195312 -10.0625 32.125 -12.09375 C 34.0625 -14.125 35.03125 -16.847656 35.03125 -20.265625 C 35.03125 -23.679688 34.0625 -26.40625 32.125 -28.4375 C 30.195312 -30.476562 27.726562 -31.5 24.71875 -31.5 C 21.695312 -31.5 19.207031 -30.476562 17.25 -28.4375 C 15.289062 -26.40625 14.3125 -23.679688 14.3125 -20.265625 C 14.3125 -16.847656 15.289062 -14.125 17.25 -12.09375 C 19.207031 -10.0625 21.695312 -9.046875 24.71875 -9.046875 Z M 24.71875 -9.046875 "/></g></g><g style="fill:#1d546b;fill-opacity:1;"><g transform="translate(588.693399, 142.770212)"><path style="stroke:none" d="M 5.421875 -40.53125 L 17.171875 -40.53125 L 17.171875 0 L 5.421875 0 Z M 11.296875 -46.1875 C 9.140625 -46.1875 7.382812 -46.8125 6.03125 -48.0625 C 4.675781 -49.320312 4 -50.878906 4 -52.734375 C 4 -54.597656 4.675781 -56.15625 6.03125 -57.40625 C 7.382812 -58.664062 9.140625 -59.296875 11.296875 -59.296875 C 13.460938 -59.296875 15.222656 -58.691406 16.578125 -57.484375 C 17.929688 -56.273438 18.609375 -54.769531 18.609375 -52.96875 C 18.609375 -51.007812 17.929688 -49.390625 16.578125 -48.109375 C 15.222656 -46.828125 13.460938 -46.1875 11.296875 -46.1875 Z M 11.296875 -46.1875 "/></g></g><g style="fill:#1d546b;fill-opacity:1;"><g transform="translate(611.372319, 142.770212)"><path style="stroke:none" d="M 30.0625 -41.140625 C 35.082031 -41.140625 39.132812 -39.628906 42.21875 -36.609375 C 45.3125 -33.597656 46.859375 -29.128906 46.859375 -23.203125 L 46.859375 0 L 35.109375 0 L 35.109375 -21.390625 C 35.109375 -24.609375 34.40625 -27.007812 33 -28.59375 C 31.59375 -30.175781 29.554688 -30.96875 26.890625 -30.96875 C 23.929688 -30.96875 21.570312 -30.050781 19.8125 -28.21875 C 18.050781 -26.382812 17.171875 -23.660156 17.171875 -20.046875 L 17.171875 0 L 5.421875 0 L 5.421875 -40.53125 L 16.65625 -40.53125 L 16.65625 -35.78125 C 18.207031 -37.488281 20.140625 -38.804688 22.453125 -39.734375 C 24.765625 -40.671875 27.300781 -41.140625 30.0625 -41.140625 Z M 30.0625 -41.140625 "/></g></g><g style="fill:#1d546b;fill-opacity:1;"><g transform="translate(663.43586, 142.770212)"><path style="stroke:none" d="M 31.5625 -1.953125 C 30.414062 -1.097656 29 -0.457031 27.3125 -0.03125 C 25.625 0.394531 23.851562 0.609375 22 0.609375 C 17.175781 0.609375 13.445312 -0.617188 10.8125 -3.078125 C 8.175781 -5.546875 6.859375 -9.164062 6.859375 -13.9375 L 6.859375 -30.59375 L 0.609375 -30.59375 L 0.609375 -39.625 L 6.859375 -39.625 L 6.859375 -49.5 L 18.609375 -49.5 L 18.609375 -39.625 L 28.703125 -39.625 L 28.703125 -30.59375 L 18.609375 -30.59375 L 18.609375 -14.09375 C 18.609375 -12.382812 19.046875 -11.0625 19.921875 -10.125 C 20.804688 -9.195312 22.050781 -8.734375 23.65625 -8.734375 C 25.519531 -8.734375 27.101562 -9.238281 28.40625 -10.25 Z M 31.5625 -1.953125 "/></g></g><g clip-rule="nonzero" clip-path="url(#08b75d9a38)"><path style=" stroke:none;fill-rule:evenodd;fill:#1d546b;fill-opacity:1;" d="M 102.484375 34.292969 C 129.359375 34.292969 151.179688 56.113281 151.179688 82.988281 C 151.179688 109.863281 129.359375 131.679688 102.484375 131.679688 C 75.609375 131.679688 53.792969 109.863281 53.792969 82.988281 C 53.792969 56.113281 75.609375 34.292969 102.484375 34.292969 Z M 102.484375 66.753906 C 93.527344 66.753906 86.253906 74.027344 86.253906 82.988281 C 86.253906 91.945312 93.527344 99.21875 102.484375 99.21875 C 111.445312 99.21875 118.71875 91.945312 118.71875 82.988281 C 118.71875 74.027344 111.445312 66.753906 102.484375 66.753906 Z M 102.484375 66.753906 "/></g><g clip-rule="nonzero" clip-path="url(#436ffe1b35)"><path style=" stroke:none;fill-rule:nonzero;fill:#1d546b;fill-opacity:1;" d="M 134.949219 164.144531 C 134.949219 165.207031 134.898438 166.265625 134.792969 167.324219 C 134.6875 168.382812 134.53125 169.433594 134.324219 170.476562 C 134.117188 171.519531 133.859375 172.550781 133.550781 173.566406 C 133.242188 174.585938 132.882812 175.585938 132.476562 176.566406 C 132.070312 177.546875 131.617188 178.507812 131.117188 179.445312 C 130.613281 180.382812 130.070312 181.292969 129.476562 182.179688 C 128.886719 183.0625 128.253906 183.914062 127.578125 184.738281 C 126.90625 185.558594 126.191406 186.347656 125.441406 187.097656 C 124.6875 187.851562 123.902344 188.5625 123.078125 189.238281 C 122.257812 189.910156 121.40625 190.542969 120.519531 191.136719 C 119.636719 191.726562 118.726562 192.273438 117.789062 192.773438 C 116.851562 193.273438 115.890625 193.726562 114.910156 194.136719 C 113.925781 194.542969 112.925781 194.898438 111.910156 195.207031 C 110.890625 195.515625 109.863281 195.773438 108.820312 195.980469 C 107.777344 196.191406 106.726562 196.34375 105.667969 196.449219 C 104.609375 196.554688 103.550781 196.605469 102.484375 196.605469 C 101.421875 196.605469 100.363281 196.554688 99.304688 196.449219 C 98.246094 196.34375 97.195312 196.191406 96.152344 195.980469 C 95.109375 195.773438 94.078125 195.515625 93.0625 195.207031 C 92.046875 194.898438 91.046875 194.542969 90.0625 194.136719 C 89.082031 193.726562 88.121094 193.273438 87.183594 192.773438 C 86.246094 192.273438 85.335938 191.726562 84.449219 191.136719 C 83.566406 190.542969 82.714844 189.910156 81.890625 189.238281 C 81.070312 188.5625 80.28125 187.851562 79.53125 187.097656 C 78.78125 186.347656 78.066406 185.558594 77.390625 184.738281 C 76.71875 183.914062 76.085938 183.0625 75.496094 182.179688 C 74.902344 181.292969 74.359375 180.382812 73.855469 179.445312 C 73.355469 178.507812 72.902344 177.546875 72.496094 176.566406 C 72.085938 175.585938 71.730469 174.585938 71.421875 173.566406 C 71.113281 172.550781 70.855469 171.519531 70.648438 170.476562 C 70.441406 169.433594 70.285156 168.382812 70.179688 167.324219 C 70.074219 166.265625 70.023438 165.207031 70.023438 164.144531 C 70.023438 163.082031 70.074219 162.019531 70.179688 160.960938 C 70.285156 159.902344 70.441406 158.851562 70.648438 157.808594 C 70.855469 156.765625 71.113281 155.738281 71.421875 154.71875 C 71.730469 153.703125 72.085938 152.703125 72.496094 151.71875 C 72.902344 150.738281 73.355469 149.777344 73.855469 148.839844 C 74.359375 147.902344 74.902344 146.992188 75.496094 146.109375 C 76.085938 145.222656 76.71875 144.371094 77.390625 143.550781 C 78.066406 142.726562 78.78125 141.941406 79.53125 141.1875 C 80.28125 140.4375 81.070312 139.722656 81.890625 139.050781 C 82.714844 138.375 83.566406 137.742188 84.449219 137.152344 C 85.335938 136.5625 86.246094 136.015625 87.183594 135.515625 C 88.121094 135.011719 89.082031 134.558594 90.0625 134.152344 C 91.046875 133.746094 92.046875 133.386719 93.0625 133.078125 C 94.078125 132.769531 95.109375 132.511719 96.152344 132.304688 C 97.195312 132.097656 98.246094 131.941406 99.304688 131.835938 C 100.363281 131.734375 101.421875 131.679688 102.484375 131.679688 C 103.550781 131.679688 104.609375 131.734375 105.667969 131.835938 C 106.726562 131.941406 107.777344 132.097656 108.820312 132.304688 C 109.863281 132.511719 110.890625 132.769531 111.910156 133.078125 C 112.925781 133.386719 113.925781 133.746094 114.910156 134.152344 C 115.890625 134.558594 116.851562 135.011719 117.789062 135.515625 C 118.726562 136.015625 119.636719 136.5625 120.519531 137.152344 C 121.40625 137.742188 122.257812 138.375 123.082031 139.050781 C 123.902344 139.722656 124.6875 140.4375 125.441406 141.1875 C 126.191406 141.941406 126.90625 142.726562 127.578125 143.550781 C 128.253906 144.371094 128.886719 145.222656 129.476562 146.109375 C 130.070312 146.992188 130.613281 147.902344 131.117188 148.839844 C 131.617188 149.777344 132.070312 150.738281 132.476562 151.71875 C 132.882812 152.703125 133.242188 153.703125 133.550781 154.71875 C 133.859375 155.738281 134.117188 156.765625 134.324219 157.808594 C 134.53125 158.851562 134.6875 159.902344 134.792969 160.960938 C 134.898438 162.019531 134.949219 163.082031 134.949219 164.144531 Z M 134.949219 164.144531 "/></g><path style=" stroke:none;fill-rule:evenodd;fill:#1d546b;fill-opacity:1;" d="M 70.515625 169.792969 L 102.488281 131.683594 L 54.417969 90.289062 Z M 70.515625 169.792969 "/></g></svg>